# Blender v2.82 (sub 7) OBJ File: 'CubeWithSlotAndTile.blend'
# www.blender.org
mtllib TileUVMapped.mtl
o Tile_Plane.001
v -0.879881 0.879881 1.000000
v 0.879881 0.879881 1.000000
v -0.879881 -0.879881 1.000000
v 0.879881 -0.879881 1.000000
v -0.791893 -0.791893 0.902235
v -0.791893 0.791893 0.902236
v 0.791893 0.791893 0.902236
v 0.791893 -0.791893 0.902235
v -0.879881 -0.879881 0.951118
v -0.879881 0.879881 0.951118
v 0.879881 0.879881 0.951118
v 0.879881 -0.879881 0.951118
vt 0.500000 0.500000
vt 0.000000 0.500000
vt 0.000000 0.000000
vt 0.500000 0.000000
vt 0.025000 0.975000
vt 0.025000 0.525000
vt 0.475000 0.525000
vt 0.475000 0.975000
vt 0.563889 0.000000
vt 0.563889 0.500000
vt 0.550000 0.500000
vt 0.550000 0.000000
vt 0.605556 0.000000
vt 0.605556 0.500000
vt 0.591667 0.500000
vt 0.591667 0.000000
vt 0.577778 0.000000
vt 0.577778 0.500000
vt 0.563889 0.500000
vt 0.563889 0.000000
vt 0.577778 0.500000
vt 0.577778 0.000000
vt 0.591667 0.000000
vt 0.500000 0.475000
vt 0.500000 0.025000
vt 0.525000 0.000000
vt 0.525000 0.500000
vt 0.000000 1.000000
vt 0.000000 0.500000
vt 0.525000 0.475000
vt 0.525000 0.025000
vt 0.500000 0.500000
vt 0.500000 1.000000
vn 0.0000 0.0000 1.0000
vn 0.0000 0.0000 -1.0000
vn 1.0000 0.0000 0.0000
vn -1.0000 0.0000 0.0000
vn 0.0000 -1.0000 0.0000
vn 0.0000 1.0000 0.0000
vn -0.4856 0.0000 -0.8742
vn 0.0000 0.4856 -0.8742
vn 0.4856 0.0000 -0.8742
vn 0.0000 -0.4856 -0.8742
usemtl None
s off
f 1/1/1 3/2/1 4/3/1 2/4/1
f 6/5/2 7/6/2 8/7/2 5/8/2
f 2/9/3 4/10/3 12/11/3 11/12/3
f 3/13/4 1/14/4 10/15/4 9/16/4
f 4/17/5 3/18/5 9/19/5 12/20/5
f 1/21/6 2/22/6 11/23/6 10/15/6
f 6/24/7 5/25/7 9/26/7 10/27/7
f 7/6/8 6/5/8 10/28/8 11/29/8
f 8/30/9 7/31/9 11/12/9 12/11/9
f 5/8/10 8/7/10 12/32/10 9/33/10
