# Blender v2.82 (sub 7) OBJ File: 'TriangleTut.blend'
# www.blender.org
mtllib CornerPieceTut1.mtl
g Corner
v -0.078125 -0.437500 1.421875
v -0.078125 -0.437500 -0.578125
v -0.078125 0.562500 -0.578125
v 0.671875 -0.437500 0.171875
vt 0.000000 0.000000
vt 0.000000 0.000000
vt 0.000000 0.000000
vt 0.000000 0.000000
vn -0.5976 -0.7171 -0.3586
vn 0.0000 -1.0000 0.0000
vn 1.0000 0.0000 0.0000
vn -0.7071 0.0000 0.7071
usemtl None
s off
f 1/1/1 3/2/1 4/3/1
f 4/3/2 1/1/2 2/4/2
f 3/2/3 1/1/3 2/4/3
f 3/2/4 2/4/4 4/3/4
