# Blender v2.82 (sub 7) OBJ File: 'TriangleTut.blend'
# www.blender.org
mtllib CornerTut1.mtl
g Corner
v -0.437500 -0.250000 1.562500
v -0.437500 -0.250000 -0.437500
v 1.562500 -0.250000 -0.437500
v -0.437500 0.750000 -0.437500
v 0.312500 -0.250000 0.312500
vt 0.000000 0.000000
vt 0.000000 0.000000
vt 0.000000 0.000000
vt 0.000000 0.000000
vt 0.000000 0.000000
vn -0.5976 -0.7171 -0.3586
vn -0.3586 -0.7171 -0.5976
vn 0.0000 0.0000 1.0000
vn 0.0000 -1.0000 0.0000
vn 1.0000 0.0000 0.0000
vn 0.0000 1.0000 0.0000
usemtl None
s off
f 1/1/1 4/2/1 5/3/1
f 5/3/2 4/2/2 3/4/2
f 4/2/3 2/5/3 3/4/3
f 5/3/4 1/1/4 2/5/4
f 4/2/5 1/1/5 2/5/5
f 5/3/6 3/4/6 2/5/6
