# Blender v2.82 (sub 7) OBJ File: 'CubeWithSlotAndTileSymbols.blend'
# www.blender.org
mtllib TileTriangle.mtl
g TileTriangle_TileTraingle
v -0.300000 -0.300000 -0.090000
v 0.300000 -0.300000 -0.090000
v 0.000001 0.300000 -0.090000
v -0.850000 0.850000 -0.039000
v 0.850000 0.850000 -0.039000
v -0.850000 -0.851000 -0.039000
v 0.850000 -0.851000 -0.039000
v -0.800060 -0.800060 -0.138999
v -0.800060 0.800060 -0.138999
v 0.800060 0.800060 -0.138999
v 0.800060 -0.800060 -0.138999
v -0.850000 -0.851000 -0.089000
v -0.850000 0.850000 -0.089000
v 0.850000 0.850000 -0.089000
v 0.850000 -0.851000 -0.089000
v 0.300000 -0.300000 -0.138999
v -0.300000 -0.300000 -0.138999
v 0.000001 0.300000 -0.138999
vt 0.125000 0.750000
vt 0.125000 0.647918
vt 0.000000 0.000000
vt 0.000000 0.000000
vt 0.375000 0.750000
vt 0.500000 0.500000
vt 0.000000 0.500000
vt 0.000000 0.000000
vt 0.500000 0.000000
vt 0.025000 0.975000
vt 0.025000 0.525000
vt 0.475000 0.525000
vt 0.334369 0.665631
vt 0.165631 0.750000
vt 0.334369 0.834369
vt 0.475000 0.975000
vt 0.563889 0.000000
vt 0.563889 0.500000
vt 0.550000 0.500000
vt 0.550000 0.000000
vt 0.605556 0.000000
vt 0.605556 0.500000
vt 0.591667 0.500000
vt 0.591667 0.000000
vt 0.577778 0.000000
vt 0.577778 0.500000
vt 0.563889 0.500000
vt 0.563889 0.000000
vt 0.577778 0.500000
vt 0.577778 0.000000
vt 0.591667 0.000000
vt 0.500000 0.475000
vt 0.500000 0.025000
vt 0.525000 0.000000
vt 0.525000 0.500000
vt 0.000000 1.000000
vt 0.000000 0.500000
vt 0.525000 0.475000
vt 0.525000 0.025000
vt 0.500000 0.500000
vt 0.500000 1.000000
vt 0.375000 0.647918
vn 0.8944 -0.4472 0.0000
vn 0.0000 -0.0000 -1.0000
vn 0.0000 -0.0000 1.0000
vn 1.0000 -0.0000 0.0000
vn -1.0000 -0.0000 0.0000
vn 0.0000 -1.0000 -0.0000
vn 0.0000 1.0000 0.0000
vn -0.7075 0.0000 -0.7067
vn 0.0000 0.7075 -0.7067
vn 0.7075 0.0000 -0.7067
vn 0.0000 -0.7005 -0.7137
vn -0.8944 -0.4472 0.0000
usemtl None
s off
f 1/1/1 17/2/1 18/3/1 3/4/1
f 1/1/2 3/4/2 2/5/2
f 4/6/3 6/7/3 7/8/3 5/9/3
f 9/10/2 10/11/2 11/12/2 16/13/2 18/14/2 17/15/2 8/16/2
f 5/17/4 7/18/4 15/19/4 14/20/4
f 6/21/5 4/22/5 13/23/5 12/24/5
f 7/25/6 6/26/6 12/27/6 15/28/6
f 4/29/7 5/30/7 14/31/7 13/23/7
f 9/32/8 8/33/8 12/34/8 13/35/8
f 10/11/9 9/10/9 13/36/9 14/37/9
f 11/38/10 10/39/10 14/20/10 15/19/10
f 8/16/11 11/12/11 15/40/11 12/41/11
f 16/42/12 2/5/12 3/4/12 18/3/12
f 8/16/2 17/15/2 16/13/2 11/12/2
f 17/2/7 1/1/7 2/5/7 16/42/7
