# Blender v2.82 (sub 7) OBJ File: 'TriangleTut.blend'
# www.blender.org
mtllib invertedNormals.mtl
g Cube_Cube.001
v -0.450000 -0.250000 1.550000
v -0.450000 -0.250000 -0.450000
v -0.450000 0.750000 -0.450000
v 0.350000 -0.250000 0.350000
v 1.550000 -0.250000 -0.450000
vt 0.000000 0.000000
vt 0.000000 0.000000
vt 0.000000 0.000000
vt 0.000000 0.000000
vt 0.000000 0.000000
vn 0.0000 -1.0000 0.0000
vn 0.5571 0.7428 0.3714
vn -1.0000 0.0000 0.0000
vn 0.3714 0.7428 0.5571
vn 0.0000 0.0000 -1.0000
usemtl None
s off
f 2/1/1 4/2/1 1/3/1
f 4/2/2 3/4/2 1/3/2
f 2/1/3 1/3/3 3/4/3
f 5/5/1 4/2/1 2/1/1
f 3/4/4 4/2/4 5/5/4
f 2/1/5 3/4/5 5/5/5
