# Blender v2.82 (sub 7) OBJ File: 'Table_with_hole_less.blend'
# www.blender.org
mtllib Table_with_hole_less.mtl
o TableTop_Plane
v -0.900000 1.198769 -1.000000
v -1.000000 1.198769 -0.900000
v -0.900000 1.318769 -0.900000
v 0.000000 1.198769 -1.000000
v 0.900000 1.198769 -1.000000
v 1.000000 1.198769 -0.900000
v 0.000000 1.318769 -0.900000
v 0.900000 1.318769 -0.900000
v -1.000000 1.198769 0.000000
v -0.900000 1.198769 1.000000
v -0.600000 1.238769 0.300000
v -1.000000 1.198769 0.900000
v -0.600000 1.238769 0.600000
v 1.000000 1.198769 0.000000
v 0.000000 1.198769 1.000000
v -0.300000 1.238769 0.300000
v 0.900000 1.198769 1.000000
v 0.900000 1.318769 0.000000
v 1.000000 1.198769 0.900000
v -0.300000 1.238769 0.600000
v 0.900000 1.318769 0.900000
v -0.900000 1.118769 -1.000000
v -1.000000 1.118769 -0.900000
v -0.900000 0.998769 -0.900000
v 0.000000 1.118769 -1.000000
v 0.900000 1.118769 -1.000000
v 1.000000 1.118769 -0.900000
v 0.000000 0.998769 -0.900000
v 0.900000 0.998769 -0.900000
v -1.000000 1.118769 0.000000
v -0.900000 1.118769 1.000000
v -0.900000 0.998769 0.000000
v -1.000000 1.118769 0.900000
v -0.900000 0.998769 0.900000
v 1.000000 1.118769 0.000000
v 0.000000 1.118769 1.000000
v 0.000000 0.998769 0.000000
v 0.900000 1.118769 1.000000
v 0.900000 0.998769 0.000000
v 1.000000 1.118769 0.900000
v 0.000000 0.998769 0.900000
v 0.900000 0.998769 0.900000
v 0.000000 1.318769 0.000000
v -0.900000 1.318769 0.000000
v 0.000000 1.318769 0.900000
v -0.900000 1.318769 0.900000
v 0.000000 1.318769 0.000000
v -0.900000 1.318769 0.000000
v 0.000000 1.318769 0.900000
v -0.900000 1.318769 0.900000
v -0.200000 1.318769 0.200000
v -0.700000 1.318769 0.200000
v -0.200000 1.318769 0.700000
v -0.700000 1.318769 0.700000
vt 0.967742 0.269642
vt 0.967742 0.446418
vt 0.919355 0.426777
vt 0.919355 0.250000
vt 0.709677 0.712282
vt 0.755297 0.712282
vt 0.732487 0.753948
vt 0.790323 0.466060
vt 0.838710 0.446419
vt 0.838710 0.623195
vt 0.790323 0.642837
vt 0.290323 0.500000
vt 0.290323 0.750000
vt 0.000000 0.750000
vt 0.000000 0.500000
vt 0.967742 0.623195
vt 0.919355 0.603553
vt 0.919355 0.642837
vt 0.661290 0.176777
vt 0.661290 0.000000
vt 0.709677 0.019642
vt 0.709677 0.196418
vt 0.290323 1.000000
vt 0.000000 1.000000
vt 0.629032 0.569613
vt 0.629032 0.392837
vt 0.661290 0.392837
vt 0.661290 0.569614
vt 0.758065 0.466060
vt 0.758065 0.289284
vt 0.790323 0.289284
vt 0.709677 0.726748
vt 0.661290 0.746390
vt 0.709677 0.549972
vt 0.790323 0.250000
vt 0.838710 0.269642
vt 0.483871 0.583333
vt 0.483871 0.666667
vt 0.387097 0.666667
vt 0.387097 0.583333
vt 0.887097 0.603553
vt 0.887097 0.426777
vt 0.758065 0.642837
vt 0.709677 0.373195
vt 0.661290 0.353553
vt 0.580645 0.750000
vt 0.580645 1.000000
vt 0.629032 0.353553
vt 0.887097 0.642837
vt 0.838710 0.269642
vt 0.887097 0.250000
vt 0.838710 0.446418
vt 0.709677 0.684504
vt 0.732487 0.642837
vt 0.755297 0.684504
vt 0.709677 0.623195
vt 0.709678 0.446419
vt 0.290323 0.500000
vt 0.000000 0.500000
vt 0.000000 0.250000
vt 0.290323 0.250000
vt 0.838710 0.623195
vt 0.629032 0.176777
vt 0.580645 0.196418
vt 0.580645 0.019642
vt 0.629032 0.000000
vt 0.290322 0.000000
vt 0.000000 0.000000
vt 0.629032 0.746390
vt 0.758065 0.250000
vt 0.580645 0.726748
vt 0.580645 0.549972
vt 0.709678 0.269642
vt 0.580645 0.250000
vt 0.580645 0.500000
vt 0.580645 0.373195
vt 0.580645 0.000000
vt 0.000000 0.000000
vt 0.000000 0.000000
vt 0.000000 0.000000
vt 0.000000 0.000000
vt 0.000000 0.000000
vt 0.000000 0.000000
vt 0.000000 0.000000
vt 0.000000 0.000000
vt 0.580645 0.750000
vt 0.516129 0.694444
vt 0.516129 0.555556
vt 0.580645 0.500000
vt 0.354839 0.555556
vt 0.290323 0.500000
vt 0.290323 0.750000
vt 0.354839 0.694444
vn 0.0000 0.6402 -0.7682
vn -0.6092 0.5077 -0.6092
vn -0.7682 0.6402 0.0000
vn 0.0000 1.0000 0.0000
vn 0.6092 0.5077 -0.6092
vn 0.7682 0.6402 0.0000
vn 0.0000 0.0000 1.0000
vn -1.0000 0.0000 0.0000
vn 0.0000 0.6402 0.7682
vn -0.6092 0.5077 0.6092
vn 0.0000 0.0000 -1.0000
vn 0.6092 0.5077 0.6092
vn 0.7071 0.0000 0.7071
vn 0.7071 0.0000 -0.7071
vn 0.0000 -0.6402 -0.7682
vn -0.6092 -0.5077 -0.6092
vn -0.7682 -0.6402 0.0000
vn 0.0000 -1.0000 0.0000
vn 0.6092 -0.5077 -0.6092
vn 0.7682 -0.6402 0.0000
vn -0.7071 0.0000 0.7071
vn 0.0000 -0.6402 0.7682
vn -0.6092 -0.5077 0.6092
vn -0.7071 0.0000 -0.7071
vn 0.6092 -0.5077 0.6092
vn 1.0000 0.0000 0.0000
vn 0.0000 0.7809 0.6247
vn -0.6247 0.7809 0.0000
vn 0.6247 0.7809 0.0000
vn 0.0000 0.7809 -0.6247
usemtl Material.001
s off
f 3/1/1 7/2/1 4/3/1 1/4/1
f 1/5/2 2/6/2 3/7/2
f 9/8/3 44/9/3 3/10/3 2/11/3
f 44/12/4 43/13/4 7/14/4 3/15/4
f 8/16/1 5/17/1 4/3/1 7/2/1
f 5/17/5 8/16/5 6/18/5
f 14/19/6 6/20/6 8/21/6 18/22/6
f 18/23/4 8/24/4 7/14/4 43/13/4
f 36/25/7 38/26/7 17/27/7 15/28/7
f 9/8/8 30/29/8 33/30/8 12/31/8
f 46/32/9 10/33/9 15/28/9 45/34/9
f 10/35/10 46/36/10 12/31/10
f 9/8/3 12/31/3 46/36/3 44/9/3
f 11/37/4 13/38/4 20/39/4 16/40/4
f 5/17/11 26/41/11 25/42/11 4/3/11
f 9/8/8 2/11/8 23/43/8 30/29/8
f 21/44/9 45/34/9 15/28/9 17/27/9
f 17/27/12 19/45/12 21/44/12
f 14/19/6 18/22/6 21/44/6 19/45/6
f 18/23/4 43/13/4 45/46/4 21/47/4
f 19/45/13 17/27/13 38/26/13 40/48/13
f 6/18/14 27/49/14 26/41/14 5/17/14
f 24/50/15 22/51/15 25/42/15 28/52/15
f 22/53/16 24/54/16 23/55/16
f 30/29/17 23/43/17 24/56/17 32/57/17
f 32/58/18 24/59/18 28/60/18 37/61/18
f 29/62/15 28/52/15 25/42/15 26/41/15
f 26/41/19 27/49/19 29/62/19
f 35/63/20 39/64/20 29/65/20 27/66/20
f 39/67/18 37/61/18 28/60/18 29/68/18
f 10/33/7 31/69/7 36/25/7 15/28/7
f 12/31/21 33/30/21 31/70/21 10/35/21
f 34/71/22 41/72/22 36/25/22 31/69/22
f 31/70/23 33/30/23 34/73/23
f 30/29/17 32/57/17 34/73/17 33/30/17
f 32/58/18 37/61/18 41/74/18 34/75/18
f 1/4/11 4/3/11 25/42/11 22/51/11
f 2/6/24 1/5/24 22/53/24 23/55/24
f 42/76/22 38/26/22 36/25/22 41/72/22
f 38/26/25 42/76/25 40/48/25
f 35/63/20 40/48/20 42/76/20 39/64/20
f 39/67/18 42/77/18 41/74/18 37/61/18
f 14/19/26 19/45/26 40/48/26 35/63/26
f 14/19/26 35/63/26 27/66/26 6/20/26
f 48/78/7 47/79/7 43/80/7 44/81/7
f 47/79/7 49/82/7 45/83/7 43/80/7
f 50/84/7 48/78/7 44/81/7 46/85/7
f 49/82/7 50/84/7 46/85/7 45/83/7
f 50/86/4 54/87/4 52/88/4 48/89/4
f 48/89/4 52/88/4 51/90/4 47/91/4
f 50/86/4 49/92/4 53/93/4 54/87/4
f 49/92/4 47/91/4 51/90/4 53/93/4
f 11/37/27 16/40/27 51/90/27 52/88/27
f 16/40/28 20/39/28 53/93/28 51/90/28
f 13/38/29 11/37/29 52/88/29 54/87/29
f 20/39/30 13/38/30 54/87/30 53/93/30
o LeftFrontLeg_Plane.001
v -0.799652 0.000000 0.650746
v -0.749652 0.000000 0.650746
v -0.749652 0.000000 0.600746
v -0.599652 0.000000 0.650746
v -0.649652 0.000000 0.650746
v -0.649652 0.000000 0.600746
v -0.799652 0.000000 0.750746
v -0.749652 0.000000 0.750746
v -0.749652 0.000000 0.800746
v -0.599652 0.000000 0.750746
v -0.649652 0.000000 0.750746
v -0.649652 0.000000 0.800746
v -0.899652 1.000000 0.600746
v -0.799652 1.000000 0.600746
v -0.799652 1.000000 0.500746
v -0.499652 1.000000 0.600746
v -0.599652 1.000000 0.600746
v -0.599652 1.000000 0.500746
v -0.899652 1.000000 0.800746
v -0.799652 1.000000 0.800746
v -0.799652 1.000000 0.900746
v -0.499652 1.000000 0.800746
v -0.599652 1.000000 0.800746
v -0.599652 1.000000 0.900746
vt 0.000000 0.750000
vt 0.250000 1.000000
vt 0.250000 0.750000
vt 0.250000 1.000000
vt 0.250000 1.000000
vt 0.250000 1.000000
vt 0.250000 1.000000
vt 0.000000 0.750000
vt 0.250000 0.750000
vt 0.250000 1.000000
vt 0.000000 0.750000
vt 0.000000 0.750000
vt 0.000000 0.750000
vt 0.250000 0.750000
vt 0.250000 0.750000
vt 0.250000 1.000000
vt 0.250000 1.000000
vt 0.000000 0.750000
vt 0.000000 0.750000
vt 0.000000 0.750000
vt 0.250000 0.750000
vt 0.250000 0.750000
vt 0.250000 0.750000
vt 0.250000 0.750000
vn 0.0000 -1.0000 0.0000
vn 0.0000 -0.0995 0.9950
vn -0.9950 -0.0995 0.0000
vn 0.0000 -0.0995 -0.9950
vn 0.9950 -0.0995 0.0000
vn 0.0000 1.0000 0.0000
vn -0.7032 -0.1055 -0.7032
vn 0.7032 -0.1055 -0.7032
vn 0.7032 -0.1055 0.7032
vn -0.7032 -0.1055 0.7032
usemtl Material.001
s off
f 55/94/31 57/95/31 56/96/31
f 66/97/32 78/98/32 75/99/32 63/100/32
f 58/101/31 59/102/31 60/103/31
f 57/95/31 60/103/31 59/102/31 56/96/31
f 61/104/33 73/105/33 67/106/33 55/94/33
f 61/104/31 62/107/31 63/100/31
f 65/108/31 62/107/31 56/96/31 59/102/31
f 60/103/34 57/95/34 69/109/34 72/110/34
f 64/111/35 58/101/35 70/112/35 76/113/35
f 64/111/31 66/97/31 65/108/31
f 66/97/31 63/100/31 62/107/31 65/108/31
f 58/101/31 64/111/31 65/108/31 59/102/31
f 55/94/31 56/96/31 62/107/31 61/104/31
f 67/106/36 68/114/36 69/109/36
f 70/112/36 72/110/36 71/115/36
f 73/105/36 75/99/36 74/116/36
f 76/113/36 77/117/36 78/98/36
f 77/117/36 71/115/36 68/114/36 74/116/36
f 69/109/36 68/114/36 71/115/36 72/110/36
f 70/112/36 71/115/36 77/117/36 76/113/36
f 57/95/37 55/94/37 67/106/37 69/109/37
f 58/101/38 60/103/38 72/110/38 70/112/38
f 77/117/36 74/116/36 75/99/36 78/98/36
f 66/97/39 64/111/39 76/113/39 78/98/39
f 67/106/36 73/105/36 74/116/36 68/114/36
f 61/104/40 63/100/40 75/99/40 73/105/40
o RightFrontLeg_Plane.002
v 0.596122 0.000000 0.650746
v 0.646122 0.000000 0.650746
v 0.646122 0.000000 0.600746
v 0.796122 0.000000 0.650746
v 0.746122 0.000000 0.650746
v 0.746122 0.000000 0.600746
v 0.596122 0.000000 0.750746
v 0.646122 0.000000 0.750746
v 0.646122 0.000000 0.800746
v 0.796122 0.000000 0.750746
v 0.746122 0.000000 0.750746
v 0.746122 0.000000 0.800746
v 0.496122 1.000000 0.600746
v 0.596122 1.000000 0.600746
v 0.596122 1.000000 0.500746
v 0.896122 1.000000 0.600746
v 0.796122 1.000000 0.600746
v 0.796122 1.000000 0.500746
v 0.496122 1.000000 0.800746
v 0.596122 1.000000 0.800746
v 0.596122 1.000000 0.900746
v 0.896122 1.000000 0.800746
v 0.796122 1.000000 0.800746
v 0.796122 1.000000 0.900746
vt 0.000000 0.750000
vt 0.250000 1.000000
vt 0.250000 0.750000
vt 0.250000 0.750000
vt 0.000000 0.750000
vt 0.000000 0.750000
vt 0.250000 0.750000
vt 0.250000 1.000000
vt 0.250000 0.750000
vt 0.250000 0.750000
vt 0.250000 0.750000
vt 0.250000 0.750000
vt 0.000000 0.750000
vt 0.250000 0.750000
vt 0.000000 0.750000
vt 0.000000 0.750000
vt 0.250000 1.000000
vt 0.000000 0.750000
vt 0.000000 0.750000
vt 0.250000 1.000000
vt 0.250000 1.000000
vt 0.250000 1.000000
vt 0.250000 1.000000
vt 0.250000 1.000000
vn 0.0000 -1.0000 0.0000
vn 0.0000 1.0000 0.0000
vn -0.9950 -0.0995 0.0000
vn 0.0000 -0.0995 0.9950
vn 0.0000 -0.0995 -0.9950
vn 0.9950 -0.0995 0.0000
vn -0.7032 -0.1055 -0.7032
vn 0.7032 -0.1055 -0.7032
vn 0.7032 -0.1055 0.7032
vn -0.7032 -0.1055 0.7032
usemtl Material.001
s off
f 79/118/41 81/119/41 80/120/41
f 79/118/41 80/120/41 86/121/41 85/122/41
f 82/123/41 83/124/41 84/125/41
f 95/126/42 92/127/42 98/128/42 101/129/42
f 82/123/41 88/130/41 89/131/41 83/124/41
f 94/132/42 95/126/42 101/129/42 100/133/42
f 85/122/41 86/121/41 87/134/41
f 91/135/42 97/136/42 98/128/42 92/127/42
f 81/119/41 84/125/41 83/124/41 80/120/41
f 102/137/42 101/129/42 98/128/42 99/138/42
f 88/130/41 90/139/41 89/131/41
f 85/122/43 97/136/43 91/135/43 79/118/43
f 90/139/41 87/134/41 86/121/41 89/131/41
f 90/139/44 102/137/44 99/138/44 87/134/44
f 91/135/42 92/127/42 93/140/42
f 94/132/42 96/141/42 95/126/42
f 97/136/42 99/138/42 98/128/42
f 86/121/41 80/120/41 83/124/41 89/131/41
f 100/133/42 101/129/42 102/137/42
f 96/141/45 84/125/45 81/119/45 93/140/45
f 88/130/46 82/123/46 94/132/46 100/133/46
f 95/126/42 96/141/42 93/140/42 92/127/42
f 81/119/47 79/118/47 91/135/47 93/140/47
f 82/123/48 84/125/48 96/141/48 94/132/48
f 90/139/49 88/130/49 100/133/49 102/137/49
f 85/122/50 87/134/50 99/138/50 97/136/50
o LeftBackLeg_Plane.003
v -0.799652 0.000000 -0.750107
v -0.749652 0.000000 -0.750107
v -0.749652 0.000000 -0.800107
v -0.599652 0.000000 -0.750107
v -0.649652 0.000000 -0.750107
v -0.649652 0.000000 -0.800107
v -0.799652 0.000000 -0.650107
v -0.749652 0.000000 -0.650107
v -0.749652 0.000000 -0.600107
v -0.599652 0.000000 -0.650107
v -0.649652 0.000000 -0.650107
v -0.649652 0.000000 -0.600107
v -0.899652 1.000000 -0.800107
v -0.799652 1.000000 -0.800107
v -0.799652 1.000000 -0.900107
v -0.499652 1.000000 -0.800107
v -0.599652 1.000000 -0.800107
v -0.599652 1.000000 -0.900107
v -0.899652 1.000000 -0.600107
v -0.799652 1.000000 -0.600107
v -0.799652 1.000000 -0.500107
v -0.499652 1.000000 -0.600107
v -0.599652 1.000000 -0.600107
v -0.599652 1.000000 -0.500107
vt 0.035714 0.861191
vt 0.000000 0.825604
vt 0.035714 0.825604
vt 0.142857 0.754429
vt 0.142857 0.825604
vt 0.107143 0.825604
vt 0.107143 0.754429
vt 0.035714 0.718841
vt 0.035714 0.754429
vt 0.000000 0.754429
vt 0.107143 0.861191
vt 0.928571 1.000000
vt 0.785714 1.000000
vt 0.785714 0.928825
vt 0.928571 0.928825
vt 0.785714 0.786475
vt 0.928571 0.786475
vt 0.107143 0.718841
vt 0.714286 0.928825
vt 0.714286 0.786475
vt 0.785714 0.715300
vt 0.928571 0.715300
vt 1.000000 0.928825
vt 0.107143 0.715300
vt 0.071429 0.000000
vt 0.214286 0.000000
vt 0.178572 0.715300
vt 1.000000 0.786475
vt 0.285714 0.718841
vt 0.321429 0.003541
vt 0.392857 0.003541
vt 0.428571 0.718841
vt 0.857143 0.000000
vt 0.821429 0.715300
vt 0.750000 0.715300
vt 0.714286 0.000000
vt 0.678571 0.003541
vt 0.714286 0.718841
vt 0.571429 0.718841
vt 0.607143 0.003541
vt 0.571429 0.000000
vt 0.500000 0.711759
vt 0.428571 0.000000
vt 0.500000 0.711759
vt 0.071429 0.718841
vt 0.000000 0.007082
vt 0.214286 0.718841
vt 0.285714 0.007082
vn 0.0000 -1.0000 0.0000
vn 0.0000 1.0000 0.0000
vn 0.0000 -0.0995 0.9950
vn 0.9950 -0.0995 0.0000
vn 0.0000 -0.0995 -0.9950
vn -0.9950 -0.0995 0.0000
vn -0.7032 -0.1055 -0.7032
vn 0.7032 -0.1055 -0.7032
vn 0.7032 -0.1055 0.7032
vn -0.7032 -0.1055 0.7032
usemtl Material.001
s off
f 103/142/51 105/143/51 104/144/51
f 114/145/51 111/146/51 110/147/51 113/148/51
f 106/149/51 107/150/51 108/151/51
f 105/143/51 108/151/51 107/150/51 104/144/51
f 109/152/51 110/147/51 111/146/51
f 115/153/52 121/154/52 122/155/52 116/156/52
f 103/142/51 104/144/51 110/147/51 109/152/51
f 122/155/52 125/157/52 119/158/52 116/156/52
f 112/159/51 114/145/51 113/148/51
f 125/157/52 122/155/52 123/160/52 126/161/52
f 113/148/51 107/150/51 106/149/51 112/159/51
f 124/162/52 118/163/52 119/158/52 125/157/52
f 115/153/52 116/156/52 117/164/52
f 114/165/53 126/166/53 123/167/53 111/168/53
f 118/163/52 120/169/52 119/158/52
f 124/170/54 112/171/54 106/172/54 118/173/54
f 121/154/52 123/160/52 122/155/52
f 120/174/55 108/175/55 105/176/55 117/177/55
f 124/162/52 125/157/52 126/161/52
f 113/148/51 110/147/51 104/144/51 107/150/51
f 120/169/52 117/164/52 116/156/52 119/158/52
f 109/178/56 121/179/56 115/180/56 103/181/56
f 105/182/57 103/181/57 115/180/57 117/183/57
f 106/172/58 108/184/58 120/185/58 118/173/58
f 114/165/59 112/186/59 124/187/59 126/166/59
f 109/188/60 111/168/60 123/167/60 121/189/60
o RightBackLeg_Plane.004
v 0.596122 0.000000 -0.750107
v 0.646122 0.000000 -0.750107
v 0.646122 0.000000 -0.800107
v 0.796122 0.000000 -0.750107
v 0.746122 0.000000 -0.750107
v 0.746122 0.000000 -0.800107
v 0.596122 0.000000 -0.650107
v 0.646122 0.000000 -0.650107
v 0.646122 0.000000 -0.600107
v 0.796122 0.000000 -0.650107
v 0.746122 0.000000 -0.650107
v 0.746122 0.000000 -0.600107
v 0.496122 1.000000 -0.800107
v 0.596122 1.000000 -0.800107
v 0.596122 1.000000 -0.900107
v 0.896122 1.000000 -0.800107
v 0.796122 1.000000 -0.800107
v 0.796122 1.000000 -0.900107
v 0.496122 1.000000 -0.600107
v 0.596122 1.000000 -0.600107
v 0.596122 1.000000 -0.500107
v 0.896122 1.000000 -0.600107
v 0.796122 1.000000 -0.600107
v 0.796122 1.000000 -0.500107
vt 0.000000 0.750000
vt 0.250000 1.000000
vt 0.250000 0.750000
vt 0.250000 0.750000
vt 0.250000 1.000000
vt 0.250000 1.000000
vt 0.250000 0.750000
vt 0.000000 0.750000
vt 0.250000 0.750000
vt 0.250000 1.000000
vt 0.000000 0.750000
vt 0.000000 0.750000
vt 0.000000 0.750000
vt 0.250000 0.750000
vt 0.250000 0.750000
vt 0.250000 0.750000
vt 0.250000 0.750000
vt 0.000000 0.750000
vt 0.250000 1.000000
vt 0.250000 1.000000
vt 0.000000 0.750000
vt 0.000000 0.750000
vt 0.250000 1.000000
vt 0.250000 1.000000
vn 0.0000 -1.0000 0.0000
vn 0.0000 1.0000 0.0000
vn 0.0000 -0.0995 0.9950
vn 0.9950 -0.0995 0.0000
vn 0.0000 -0.0995 -0.9950
vn -0.9950 -0.0995 0.0000
vn -0.7032 -0.1055 -0.7032
vn 0.7032 -0.1055 -0.7032
vn 0.7032 -0.1055 0.7032
vn -0.7032 -0.1055 0.7032
usemtl Material.001
s off
f 127/190/61 129/191/61 128/192/61
f 137/193/61 138/194/61 135/195/61 134/196/61
f 130/197/61 131/198/61 132/199/61
f 129/191/61 132/199/61 131/198/61 128/192/61
f 133/200/61 134/196/61 135/195/61
f 139/201/62 145/202/62 146/203/62 140/204/62
f 127/190/61 128/192/61 134/196/61 133/200/61
f 146/203/62 149/205/62 143/206/62 140/204/62
f 136/207/61 138/194/61 137/193/61
f 149/205/62 146/203/62 147/208/62 150/209/62
f 130/197/61 136/207/61 137/193/61 131/198/61
f 148/210/62 142/211/62 143/206/62 149/205/62
f 139/201/62 140/204/62 141/212/62
f 138/194/63 150/209/63 147/208/63 135/195/63
f 142/211/62 144/213/62 143/206/62
f 148/210/64 136/207/64 130/197/64 142/211/64
f 145/202/62 147/208/62 146/203/62
f 144/213/65 132/199/65 129/191/65 141/212/65
f 148/210/62 149/205/62 150/209/62
f 137/193/61 134/196/61 128/192/61 131/198/61
f 144/213/62 141/212/62 140/204/62 143/206/62
f 133/200/66 145/202/66 139/201/66 127/190/66
f 129/191/67 127/190/67 139/201/67 141/212/67
f 130/197/68 132/199/68 144/213/68 142/211/68
f 138/194/69 136/207/69 148/210/69 150/209/69
f 133/200/70 135/195/70 147/208/70 145/202/70
