# Blender v2.82 (sub 7) OBJ File: 'CubeWithSlotAndTileSymbols.blend'
# www.blender.org
mtllib CubeWithSlotSymbolsUVMapped.mtl
g CubeWithSlotSymbols
v -0.300000 0.890000 0.300000
v 0.300000 0.890000 0.300000
v 0.000001 0.890000 -0.300000
v 0.890000 -0.300000 0.300000
v 0.890000 -0.300000 -0.300000
v 0.890000 0.300000 -0.000001
v -0.300000 -0.890000 -0.300000
v -0.300000 -0.890000 0.300000
v 0.300000 -0.890000 -0.300000
v 0.300000 -0.890000 0.300000
v -0.890001 -0.300000 0.300000
v -0.890001 0.300000 0.300000
v -0.890001 -0.300000 -0.300000
v -0.890001 0.300000 -0.300000
v 0.000000 0.300000 -0.890000
v 0.058527 0.294236 -0.890000
v 0.114805 0.277164 -0.890000
v 0.166671 0.249441 -0.890000
v 0.212132 0.212132 -0.890000
v 0.249441 0.166671 -0.890000
v 0.277164 0.114805 -0.890000
v 0.294236 0.058527 -0.890000
v 0.300000 0.000000 -0.890000
v 0.294236 -0.058527 -0.890000
v 0.277164 -0.114805 -0.890000
v 0.249441 -0.166671 -0.890000
v 0.212132 -0.212132 -0.890000
v 0.166671 -0.249441 -0.890000
v 0.114805 -0.277164 -0.890000
v 0.058527 -0.294236 -0.890000
v -0.000000 -0.300000 -0.890000
v -0.058527 -0.294236 -0.890000
v -0.114805 -0.277164 -0.890000
v -0.166671 -0.249441 -0.890000
v -0.212132 -0.212132 -0.890000
v -0.249441 -0.166671 -0.890000
v -0.277164 -0.114805 -0.890000
v -0.294236 -0.058527 -0.890000
v -0.300000 0.000000 -0.890000
v -0.294236 0.058527 -0.890000
v -0.277164 0.114805 -0.890000
v -0.249441 0.166671 -0.890000
v -0.212132 0.212132 -0.890000
v -0.166671 0.249441 -0.890000
v -0.114805 0.277164 -0.890000
v -0.058527 0.294236 -0.890000
v -0.900000 1.000000 -0.900000
v 0.900000 1.000000 -0.900000
v -0.900000 1.000000 0.900000
v 0.900000 1.000000 0.900000
v 0.800000 0.800000 0.900000
v -0.800000 0.800000 0.900000
v 0.900000 0.900000 -1.000000
v -1.000000 0.900000 0.900000
v 1.000000 0.900000 0.900000
v 1.000000 0.900000 -0.900000
v -0.900000 0.900000 -1.000000
v -1.000000 0.900000 -0.900000
v 0.000000 0.000000 0.000000
v -0.900000 -1.000000 -0.900000
v 0.900000 -1.000000 -0.900000
v -0.900000 -1.000000 0.900000
v 0.900000 -1.000000 0.900000
v 0.800000 -0.800000 0.900000
v -0.800000 -0.800000 0.900000
v 0.900000 -0.900000 -1.000000
v -1.000000 -0.900000 0.900000
v 1.000000 -0.900000 0.900000
v 1.000000 -0.900000 -0.900000
v -0.900000 -0.900000 -1.000000
v -1.000000 -0.900000 -0.900000
v -0.900000 0.900000 1.000000
v -0.900000 -0.900000 1.000000
v 0.900000 0.900000 1.000000
v 0.900000 -0.900000 1.000000
v 0.000000 0.300000 -1.000000
v 0.058527 0.294236 -1.000000
v -0.058527 0.294236 -1.000000
v 0.114805 0.277164 -1.000000
v -0.114805 0.277164 -1.000000
v -0.166671 0.249441 -1.000000
v 0.166671 0.249441 -1.000000
v 0.212132 0.212132 -1.000000
v -0.212132 0.212132 -1.000000
v -0.249441 0.166671 -1.000000
v 0.249441 0.166671 -1.000000
v -0.277164 0.114805 -1.000000
v 0.277164 0.114805 -1.000000
v 0.294236 0.058527 -1.000000
v -0.294236 0.058527 -1.000000
v 0.300000 0.000000 -1.000000
v 0.294236 -0.058527 -1.000000
v 0.277164 -0.114805 -1.000000
v 0.249441 -0.166671 -1.000000
v 0.212132 -0.212132 -1.000000
v 0.166671 -0.249441 -1.000000
v 0.114805 -0.277164 -1.000000
v 0.058527 -0.294236 -1.000000
v -0.000000 -0.300000 -1.000000
v -0.058527 -0.294236 -1.000000
v -0.114805 -0.277164 -1.000000
v -0.166671 -0.249441 -1.000000
v -0.249441 -0.166671 -1.000000
v -0.212132 -0.212132 -1.000000
v -0.300000 0.000000 -1.000000
v -0.294236 -0.058527 -1.000000
v -0.277164 -0.114805 -1.000000
v -1.000000 -0.300000 -0.300000
v -1.000000 0.300000 -0.300000
v -1.000000 0.300000 0.300000
v -1.000000 -0.300000 0.300000
v 0.300000 -1.000000 -0.300000
v 0.300000 -1.000000 0.300000
v -0.300000 -1.000000 0.300000
v -0.300000 -1.000000 -0.300000
v 1.000000 0.300000 -0.000001
v 1.000000 -0.300000 0.300000
v 1.000000 -0.300000 -0.300000
v 0.000001 1.000000 -0.300000
v -0.300000 1.000000 0.300000
v 0.300000 1.000000 0.300000
vt 0.763052 0.780448
vt 0.665699 0.731772
vt 0.763052 0.683095
vt 0.183991 0.800819
vt 0.166143 0.800819
vt 0.166143 0.701493
vt 0.183991 0.701493
vt 0.303502 0.701395
vt 0.321312 0.701395
vt 0.321312 0.798748
vt 0.303502 0.798748
vt 0.344429 0.798741
vt 0.393062 0.701387
vt 0.441695 0.798741
vt 0.125092 0.803912
vt 0.107244 0.803912
vt 0.107244 0.701641
vt 0.125092 0.701641
vt 0.185776 0.701395
vt 0.203624 0.701395
vt 0.203624 0.798748
vt 0.185776 0.798748
vt 0.655625 0.798741
vt 0.558411 0.798741
vt 0.558411 0.701387
vt 0.655625 0.701387
vt 0.225041 0.701390
vt 0.242890 0.701390
vt 0.242889 0.798657
vt 0.225041 0.798657
vt 0.699082 0.887537
vt 0.681350 0.887537
vt 0.681350 0.790184
vt 0.699082 0.790184
vt 0.301721 0.798748
vt 0.283910 0.798748
vt 0.283910 0.701395
vt 0.301721 0.701395
vt 0.679571 0.887323
vt 0.661723 0.887323
vt 0.661723 0.790174
vt 0.679571 0.790174
vt 0.451421 0.701387
vt 0.548687 0.701387
vt 0.548687 0.798741
vt 0.451421 0.798741
vt 0.004834 0.745024
vt 0.006692 0.735666
vt 0.010336 0.726852
vt 0.015626 0.718920
vt 0.022360 0.712175
vt 0.030277 0.706877
vt 0.039075 0.703229
vt 0.048414 0.701371
vt 0.057937 0.701375
vt 0.067276 0.703241
vt 0.076074 0.706896
vt 0.083992 0.712200
vt 0.090725 0.718950
vt 0.096016 0.726887
vt 0.099660 0.735704
vt 0.101517 0.745063
vt 0.101517 0.754605
vt 0.099660 0.763963
vt 0.096016 0.772778
vt 0.090725 0.780709
vt 0.083992 0.787454
vt 0.076074 0.792752
vt 0.067277 0.796400
vt 0.057937 0.798258
vt 0.048415 0.798254
vt 0.039075 0.796389
vt 0.030277 0.792733
vt 0.022360 0.787429
vt 0.015626 0.780679
vt 0.010336 0.772743
vt 0.006692 0.763925
vt 0.004834 0.754566
vt 0.371205 0.032451
vt 0.371205 0.324511
vt 0.354980 0.324511
vt 0.354980 0.032451
vt 0.031640 0.681092
vt 0.015414 0.664881
vt 0.031640 0.664195
vt 0.031646 0.340736
vt 0.015435 0.324511
vt 0.032332 0.324511
vt 0.862300 0.692831
vt 0.878525 0.692831
vt 0.878525 0.984890
vt 0.862300 0.984890
vt 0.371205 0.016226
vt 0.663265 0.016226
vt 0.663265 0.032451
vt 0.723763 0.356151
vt 0.707538 0.356151
vt 0.723763 0.339925
vt 0.723763 0.322077
vt 0.723763 0.338302
vt 0.707538 0.338302
vt 0.663265 0.324511
vt 0.468558 0.227158
vt 0.565912 0.178481
vt 0.468558 0.129804
vt 0.371205 0.340736
vt 0.663265 0.340736
vt 0.968358 0.030829
vt 0.968358 0.290437
vt 0.710444 0.290437
vt 0.710444 0.030829
vt 0.354168 0.389638
vt 0.646228 0.389638
vt 0.646228 0.681085
vt 0.548875 0.535362
vt 0.547939 0.525885
vt 0.545169 0.516773
vt 0.540671 0.508375
vt 0.534618 0.501014
vt 0.527241 0.494974
vt 0.518826 0.490485
vt 0.509694 0.487721
vt 0.500198 0.486787
vt 0.490702 0.487721
vt 0.481570 0.490485
vt 0.473155 0.494973
vt 0.465779 0.501014
vt 0.459725 0.508375
vt 0.455227 0.516773
vt 0.452457 0.525885
vt 0.451522 0.535362
vt 0.354168 0.681085
vt 0.323699 0.681092
vt 0.323699 0.664195
vt 0.999189 0.031626
vt 0.999189 0.323073
vt 0.982963 0.324123
vt 0.982963 0.032676
vt 0.323699 0.372397
vt 0.128993 0.566929
vt 0.226346 0.566929
vt 0.226346 0.469663
vt 0.768818 0.692831
vt 0.786789 0.692831
vt 0.786789 0.984890
vt 0.768818 0.984890
vt 0.324130 0.032451
vt 0.226864 0.129804
vt 0.129598 0.129804
vt 0.032332 0.032451
vt 0.679317 0.332615
vt 0.692065 0.322409
vt 0.692065 0.345281
vt 0.706089 0.322409
vt 0.706089 0.345281
vt 0.693340 0.335075
vt 0.354168 0.372396
vt 0.646228 0.372396
vt 0.031646 0.016226
vt 0.323444 0.016226
vt 0.982963 0.015434
vt 0.998672 0.389638
vt 0.982446 0.388588
vt 0.998672 0.372396
vt 0.675413 0.663625
vt 0.675413 0.371565
vt 0.772626 0.468918
vt 0.772626 0.566271
vt 0.869840 0.566271
vt 0.967053 0.663625
vt 0.788541 0.984890
vt 0.788541 0.692831
vt 0.805612 0.692831
vt 0.805612 0.984890
vt 0.015435 0.032451
vt 0.998672 0.681085
vt 0.982446 0.680035
vt 0.824208 0.709056
vt 0.824208 0.968665
vt 0.807311 0.984890
vt 0.807311 0.692831
vt 0.842795 0.709056
vt 0.842795 0.968665
vt 0.825898 0.984890
vt 0.825898 0.692831
vt 0.692473 0.306663
vt 0.692473 0.014603
vt 0.860677 0.709056
vt 0.860677 0.968665
vt 0.844452 0.984890
vt 0.844452 0.692831
vt 0.741365 0.813681
vt 0.759197 0.813681
vt 0.759237 0.823178
vt 0.741405 0.823178
vt 0.740802 0.788758
vt 0.758634 0.788758
vt 0.758890 0.796134
vt 0.741058 0.796134
vt 0.759080 0.804550
vt 0.741248 0.804550
vt 0.721087 0.813681
vt 0.738919 0.813681
vt 0.738958 0.823178
vt 0.721126 0.823178
vt 0.741365 0.832674
vt 0.759197 0.832674
vt 0.759080 0.841805
vt 0.741248 0.841805
vt 0.741058 0.850221
vt 0.758890 0.850221
vt 0.758634 0.857597
vt 0.740802 0.857597
vt 0.020525 0.841673
vt 0.038373 0.841673
vt 0.038373 0.851106
vt 0.020525 0.851106
vt 0.000892 0.831467
vt 0.018740 0.831467
vt 0.018740 0.840964
vt 0.000892 0.840964
vt 0.720779 0.796134
vt 0.738611 0.796134
vt 0.738802 0.804550
vt 0.720969 0.804550
vt 0.018740 0.850460
vt 0.000892 0.850460
vt 0.038373 0.860076
vt 0.020525 0.860076
vt 0.020525 0.806539
vt 0.038373 0.806539
vt 0.038373 0.814229
vt 0.020525 0.814229
vt 0.000892 0.813920
vt 0.018740 0.813920
vt 0.018740 0.822336
vt 0.000892 0.822336
vt 0.038373 0.822874
vt 0.020525 0.822874
vt 0.000892 0.868007
vt 0.018740 0.868007
vt 0.018740 0.875383
vt 0.000892 0.875383
vt 0.020525 0.868238
vt 0.038373 0.868238
vt 0.038373 0.875279
vt 0.020525 0.875279
vt 0.000892 0.859591
vt 0.018740 0.859591
vt 0.000892 0.806544
vt 0.018741 0.806544
vt 0.720969 0.841805
vt 0.738802 0.841805
vt 0.738611 0.850221
vt 0.720779 0.850221
vt 0.020525 0.832140
vt 0.038373 0.832140
vt 0.738919 0.832674
vt 0.721087 0.832674
vt 0.452457 0.544838
vt 0.455227 0.553950
vt 0.459725 0.562348
vt 0.465779 0.569709
vt 0.473155 0.575750
vt 0.481570 0.580239
vt 0.490702 0.583003
vt 0.500198 0.583936
vt 0.509694 0.583003
vt 0.518826 0.580239
vt 0.527241 0.575750
vt 0.534618 0.569709
vt 0.540671 0.562348
vt 0.545169 0.553950
vt 0.547939 0.544838
vt 0.720523 0.788758
vt 0.738355 0.788758
vt 0.738355 0.857597
vt 0.720523 0.857597
vt 0.718709 0.886870
vt 0.700861 0.886870
vt 0.700861 0.790152
vt 0.718709 0.790152
vt 0.128993 0.469663
vt 0.031640 0.372397
vt 0.205409 0.701395
vt 0.223257 0.701395
vt 0.223257 0.798748
vt 0.205409 0.798748
vt 0.264306 0.701395
vt 0.282128 0.701395
vt 0.282128 0.798748
vt 0.264306 0.798748
vt 0.869840 0.468918
vt 0.967053 0.371565
vt 0.262522 0.798657
vt 0.244674 0.798657
vt 0.244674 0.701390
vt 0.262522 0.701390
vt 0.178231 0.227158
vt 0.324130 0.324511
vt 0.144725 0.801842
vt 0.126877 0.801842
vt 0.126877 0.701542
vt 0.144725 0.701542
vt 0.164358 0.800819
vt 0.146510 0.800819
vt 0.146510 0.701493
vt 0.164358 0.701493
vn 0.0000 1.0000 -0.0000
vn -0.8944 0.0000 0.4472
vn 0.0000 0.0000 -1.0000
vn 1.0000 0.0000 0.0000
vn 0.0000 -0.4472 0.8944
vn 0.0000 -1.0000 0.0000
vn -1.0000 0.0000 0.0000
vn 0.0000 0.0000 1.0000
vn 0.0000 0.7071 0.7071
vn -0.5774 0.5774 0.5774
vn 0.5774 0.5774 0.5774
vn 0.0000 0.7071 -0.7071
vn 0.7071 0.7071 0.0000
vn -0.5774 0.5774 -0.5774
vn 0.5774 0.5774 -0.5774
vn -0.7071 0.7071 0.0000
vn -0.7071 0.0000 0.7071
vn -0.7071 0.0000 -0.7071
vn 0.0000 -0.7071 0.7071
vn -0.5774 -0.5774 0.5774
vn 0.5774 -0.5774 0.5774
vn 0.0000 -0.7071 -0.7071
vn 0.7071 -0.7071 0.0000
vn -0.5774 -0.5774 -0.5774
vn 0.5774 -0.5774 -0.5774
vn -0.7071 -0.7071 0.0000
vn 0.7071 0.0000 0.7071
vn 0.7071 0.0000 -0.7071
vn -0.9952 0.0980 0.0000
vn -0.7730 0.6344 0.0000
vn -0.8819 0.4714 0.0000
vn 0.9952 -0.0980 -0.0000
vn -0.9569 -0.2903 -0.0000
vn -0.9952 -0.0980 -0.0000
vn -0.7730 -0.6344 0.0000
vn 0.0980 -0.9952 0.0000
vn 0.0980 0.9952 0.0000
vn 0.8819 -0.4714 0.0000
vn -0.0980 0.9952 0.0000
vn 0.2903 -0.9569 0.0000
vn -0.6344 -0.7730 0.0000
vn 0.4714 0.8819 0.0000
vn -0.4714 -0.8819 0.0000
vn -0.6344 0.7730 0.0000
vn 0.6344 -0.7730 0.0000
vn 0.9569 -0.2903 0.0000
vn -0.4714 0.8819 0.0000
vn 0.6344 0.7730 0.0000
vn 0.8819 0.4714 0.0000
vn -0.0980 -0.9952 0.0000
vn -0.8819 -0.4714 0.0000
vn 0.9952 0.0980 0.0000
vn -0.9569 0.2903 0.0000
vn 0.2903 0.9569 -0.0000
vn 0.4714 -0.8819 0.0000
vn 0.9569 0.2903 0.0000
vn -0.2903 -0.9569 0.0000
vn -0.2903 0.9569 0.0000
vn 0.7730 -0.6344 0.0000
vn 0.7730 0.6344 0.0000
vn 0.0000 -0.4472 -0.8944
vn 0.8944 0.0000 0.4472
usemtl (null)
s off
f 2/1/1 3/2/1 1/3/1
f 2/4/2 121/5/2 119/6/2 3/7/2
f 1/8/3 120/9/3 121/10/3 2/11/3
f 5/12/4 6/13/4 4/14/4
f 5/15/5 118/16/5 116/17/5 6/18/5
f 4/19/1 117/20/1 118/21/1 5/22/1
f 7/23/6 9/24/6 10/25/6 8/26/6
f 9/27/7 112/28/7 113/29/7 10/30/7
f 7/31/8 115/32/8 112/33/8 9/34/8
f 10/35/3 113/36/3 114/37/3 8/38/3
f 11/39/3 111/40/3 110/41/3 12/42/3
f 13/43/7 11/44/7 12/45/7 14/46/7
f 16/47/3 17/48/3 18/49/3 19/50/3 20/51/3 21/52/3 22/53/3 23/54/3 24/55/3 25/56/3 26/57/3 27/58/3 28/59/3 29/60/3 30/61/3 31/62/3 32/63/3 33/64/3 34/65/3 35/66/3 36/67/3 37/68/3 38/69/3 39/70/3 40/71/3 41/72/3 42/73/3 43/74/3 44/75/3 45/76/3 46/77/3 15/78/3
f 50/79/9 49/80/9 72/81/9 74/82/9
f 72/83/10 49/84/10 54/85/10
f 50/86/11 74/87/11 55/88/11
f 48/89/12 53/90/12 57/91/12 47/92/12
f 55/93/13 56/94/13 48/95/13 50/79/13
f 47/96/14 57/97/14 58/98/14
f 53/99/15 48/100/15 56/101/15
f 48/95/1 47/102/1 49/80/1 120/103/1 119/104/1 121/105/1 50/79/1
f 54/106/16 49/80/16 47/102/16 58/107/16
f 65/108/8 64/109/8 51/110/8 52/111/8
f 66/112/3 70/113/3 57/114/3 105/115/3 106/116/3 107/117/3 103/118/3 104/119/3 102/120/3 101/121/3 100/122/3 99/123/3 98/124/3 97/125/3 96/126/3 95/127/3 94/128/3 93/129/3 92/130/3 91/131/3 53/132/3
f 73/133/17 72/83/17 54/85/17 67/134/17
f 71/135/18 58/136/18 57/137/18 70/138/18
f 71/139/7 67/134/7 54/85/7 110/140/7 111/141/7 108/142/7
f 63/143/19 75/144/19 73/145/19 62/146/19
f 69/147/4 118/148/4 117/149/4 68/150/4
f 73/151/20 67/152/20 62/153/20
f 63/154/21 68/155/21 75/156/21
f 61/157/22 60/158/22 70/113/22 66/112/22
f 68/150/23 63/159/23 61/160/23 69/147/23
f 60/161/24 71/135/24 70/138/24
f 66/162/25 69/163/25 61/164/25
f 61/165/6 63/166/6 113/167/6 112/168/6 115/169/6 60/170/6
f 67/171/26 71/172/26 60/173/26 62/174/26
f 68/150/27 55/88/27 74/87/27 75/175/27
f 69/163/28 66/162/28 53/176/28 56/177/28
f 65/178/27 52/179/27 72/180/27 73/181/27
f 51/182/17 64/183/17 75/184/17 74/185/17
f 52/111/19 51/110/19 74/186/19 72/187/19
f 64/188/9 65/189/9 73/190/9 75/191/9
f 92/192/29 24/193/29 23/194/29 91/195/29
f 95/196/30 27/197/30 26/198/30 94/199/30
f 94/199/31 26/198/31 25/200/31 93/201/31
f 90/202/32 40/203/32 39/204/32 105/205/32
f 89/206/33 22/207/33 21/208/33 88/209/33
f 91/195/34 23/194/34 22/207/34 89/206/34
f 86/210/35 20/211/35 19/212/35 83/213/35
f 76/214/36 15/215/36 46/216/36 78/217/36
f 100/218/37 32/219/37 31/220/37 99/221/37
f 85/222/38 42/223/38 41/224/38 87/225/38
f 99/221/39 31/220/39 30/226/39 98/227/39
f 78/217/40 46/216/40 45/228/40 80/229/40
f 83/230/41 19/231/41 18/232/41 82/233/41
f 102/234/42 34/235/42 33/236/42 101/237/42
f 82/233/43 18/232/43 17/238/43 79/239/43
f 96/240/44 28/241/44 27/242/44 95/243/44
f 81/244/45 44/245/45 43/246/45 84/247/45
f 87/225/46 41/224/46 40/203/46 90/202/46
f 97/248/47 29/249/47 28/241/47 96/240/47
f 104/250/48 35/251/48 34/235/48 102/234/48
f 107/252/49 37/253/49 36/254/49 103/255/49
f 77/256/50 16/257/50 15/215/50 76/214/50
f 88/209/51 21/208/51 20/211/51 86/210/51
f 105/205/52 39/204/52 38/258/52 106/259/52
f 93/201/53 25/200/53 24/193/53 92/192/53
f 101/237/54 33/236/54 32/219/54 100/218/54
f 53/132/3 91/131/3 89/260/3 88/261/3 86/262/3 83/263/3 82/264/3 79/265/3 77/266/3 76/267/3 78/268/3 80/269/3 81/270/3 84/271/3 85/272/3 87/273/3 90/274/3 105/115/3 57/114/3
f 80/229/55 45/228/55 44/245/55 81/244/55
f 106/259/56 38/258/56 37/253/56 107/252/56
f 79/239/57 17/238/57 16/257/57 77/256/57
f 98/227/58 30/226/58 29/249/58 97/248/58
f 84/275/59 43/276/59 42/223/59 85/222/59
f 103/255/60 36/254/60 35/277/60 104/278/60
f 108/279/8 13/280/8 14/281/8 109/282/8
f 108/142/7 109/283/7 110/140/7 54/85/7 58/284/7 71/139/7
f 111/285/1 11/286/1 13/287/1 108/288/1
f 109/289/6 14/290/6 12/291/6 110/292/6
f 60/170/6 115/169/6 114/293/6 113/167/6 63/166/6 62/294/6
f 115/295/4 7/296/4 8/297/4 114/298/4
f 68/150/4 117/149/4 116/299/4 118/148/4 69/147/4 56/300/4 55/88/4
f 117/301/61 4/302/61 6/303/61 116/304/61
f 50/79/1 121/105/1 120/103/1 49/80/1
f 120/305/62 1/306/62 3/307/62 119/308/62
