# Blender v2.82 (sub 7) OBJ File: 'CubeWithSlotAndTileSymbols.blend'
# www.blender.org
mtllib SymbolStar.mtl
g SymbolStar
v -0.300000 0.000000 0.060000
v -0.300000 0.000000 -0.060000
v 0.000000 -0.300000 -0.060000
v 0.000000 0.300000 -0.060000
v 0.300000 0.000000 -0.060000
v 0.300000 0.000000 0.060000
v 0.000000 -0.300000 0.060000
v 0.000000 0.300000 0.060000
v 0.000000 0.300000 0.000000
v 0.000000 -0.300000 0.000000
v 0.000000 0.000000 0.060000
v 0.300000 0.000000 0.000000
v 0.000000 0.000000 -0.060000
v -0.300000 0.000000 0.000000
v 0.251473 0.015764 0.060000
v 0.251473 0.015764 -0.060000
v 0.300000 0.010985 0.060000
v 0.195195 0.032836 0.060000
v 0.195195 0.032836 -0.060000
v 0.300000 0.010985 0.000000
v 0.300000 0.010985 -0.060000
v 0.143329 0.060559 0.060000
v 0.143329 0.060559 -0.060000
v 0.097868 0.097868 0.060000
v 0.097868 0.097868 -0.060000
v 0.032836 0.195195 0.060000
v 0.032836 0.195195 -0.060000
v 0.060559 0.143329 0.060000
v 0.060559 0.143329 -0.060000
v 0.015764 0.251473 0.060000
v 0.015764 0.251473 -0.060000
v 0.010985 0.300000 -0.060000
v 0.010985 0.300000 0.000000
v 0.010985 0.300000 0.060000
v 0.015764 -0.251473 -0.060000
v 0.015764 -0.251473 0.060000
v 0.010985 -0.300000 0.060000
v 0.010985 -0.300000 -0.060000
v 0.010985 -0.300000 0.000000
v 0.097868 -0.097868 -0.060000
v 0.097868 -0.097868 0.060000
v 0.032836 -0.195195 -0.060000
v 0.032836 -0.195195 0.060000
v 0.060559 -0.143329 -0.060000
v 0.060559 -0.143329 0.060000
v 0.251473 -0.015764 -0.060000
v 0.251473 -0.015764 0.060000
v 0.195195 -0.032836 -0.060000
v 0.195195 -0.032836 0.060000
v 0.143329 -0.060559 -0.060000
v 0.143329 -0.060559 0.060000
v 0.300000 -0.010985 0.000000
v 0.300000 -0.010985 0.060000
v 0.300000 -0.010985 -0.060000
v 0.031414 -0.199884 -0.060000
v 0.017187 -0.246783 0.060000
v 0.015284 -0.256350 -0.060000
v 0.101657 -0.094759 0.060000
v 0.139541 -0.063668 -0.060000
v 0.094759 -0.101656 -0.060000
v 0.063668 -0.139540 0.060000
v 0.058249 -0.147651 -0.060000
v 0.035147 -0.190872 0.060000
v 0.246784 -0.017187 -0.060000
v 0.199885 -0.031413 0.060000
v 0.190873 -0.035146 -0.060000
v 0.147651 -0.058249 0.060000
v 0.256351 -0.015284 0.060000
v 0.190873 -0.035146 -0.060000
v 0.101657 -0.094759 0.060000
v 0.147651 -0.058249 0.060000
v 0.094759 -0.101656 -0.060000
v 0.300000 -0.010985 -0.047396
v 0.031414 -0.199884 -0.060000
v 0.017187 -0.246783 0.060000
v 0.058249 -0.147651 -0.060000
v 0.010985 -0.300000 0.047397
v 0.035147 -0.190872 0.060000
v 0.256351 -0.015284 0.060000
v 0.063668 -0.139540 0.060000
v 0.246784 -0.017187 -0.060000
v 0.015284 -0.256350 -0.060000
v 0.199885 -0.031413 0.060000
v 0.139541 -0.063668 -0.060000
v -0.143329 0.060559 -0.060000
v -0.143329 0.060559 0.060000
v -0.300000 0.010985 0.000000
v -0.300000 0.010985 0.060000
v -0.195195 0.032836 -0.060000
v -0.195195 0.032836 0.060000
v -0.251473 0.015764 -0.060000
v -0.300000 0.010985 -0.060000
v -0.251473 0.015764 0.060000
v -0.097868 0.097868 -0.060000
v -0.097868 0.097868 0.060000
v -0.060559 0.143329 -0.060000
v -0.060559 0.143329 0.060000
v -0.032836 0.195195 -0.060000
v -0.032836 0.195195 0.060000
v -0.015764 0.251473 -0.060000
v -0.015764 0.251473 0.060000
v -0.010985 0.300000 0.060000
v -0.010985 0.300000 0.000000
v -0.010985 0.300000 -0.060000
v -0.015764 -0.251473 -0.060000
v -0.015764 -0.251473 0.060000
v -0.010985 -0.300000 -0.060000
v -0.010985 -0.300000 0.000000
v -0.010985 -0.300000 0.060000
v -0.032836 -0.195195 -0.060000
v -0.032836 -0.195195 0.060000
v -0.097868 -0.097868 -0.060000
v -0.097868 -0.097868 0.060000
v -0.143329 -0.060559 -0.060000
v -0.143329 -0.060559 0.060000
v -0.060559 -0.143329 -0.060000
v -0.060559 -0.143329 0.060000
v -0.300000 -0.010985 -0.060000
v -0.300000 -0.010985 0.000000
v -0.195195 -0.032836 -0.060000
v -0.195195 -0.032836 0.060000
v -0.251473 -0.015764 -0.060000
v -0.251473 -0.015764 0.060000
v -0.300000 -0.010985 0.060000
vt 0.500000 0.125000
vt 0.504577 0.125000
vt 0.504577 0.250000
vt 0.500000 0.250000
vt 0.500000 0.375000
vt 0.625000 0.375000
vt 0.625000 0.379577
vt 0.604780 0.381568
vt 0.581331 0.388682
vt 0.559720 0.400233
vt 0.540778 0.415778
vt 0.525233 0.434720
vt 0.513682 0.456331
vt 0.506568 0.479780
vt 0.504577 0.500000
vt 0.500000 0.500000
vt 0.500000 0.625000
vt 0.504577 0.625000
vt 0.504577 0.750000
vt 0.500000 0.750000
vt 0.500000 0.875000
vt 0.625000 0.875000
vt 0.625000 0.879577
vt 0.604780 0.881568
vt 0.581331 0.888682
vt 0.559720 0.900233
vt 0.540778 0.915778
vt 0.525233 0.934720
vt 0.513682 0.956331
vt 0.506568 0.979780
vt 0.504577 1.000000
vt 0.500000 1.000000
vt 0.250000 0.625000
vt 0.254577 0.625000
vt 0.254577 0.750000
vt 0.250000 0.750000
vt 0.750000 0.625000
vt 0.754577 0.625000
vt 0.754577 0.750000
vt 0.750000 0.750000
vt 0.750000 0.500000
vt 0.754577 0.500000
vt 0.250000 0.500000
vt 0.254577 0.500000
vt 0.375000 0.875000
vt 0.495423 1.000000
vt 0.493431 0.979780
vt 0.486318 0.956331
vt 0.474767 0.934720
vt 0.459222 0.915778
vt 0.440280 0.900233
vt 0.418669 0.888682
vt 0.395220 0.881569
vt 0.375000 0.879577
vt 0.506568 0.770220
vt 0.513682 0.793669
vt 0.525233 0.815280
vt 0.540778 0.834222
vt 0.559720 0.849767
vt 0.581331 0.861318
vt 0.604780 0.868432
vt 0.625000 0.870423
vt 0.375000 0.375000
vt 0.495423 0.500000
vt 0.493432 0.479781
vt 0.492839 0.477826
vt 0.486318 0.456331
vt 0.485356 0.454531
vt 0.474767 0.434721
vt 0.473472 0.433142
vt 0.459222 0.415778
vt 0.457643 0.414483
vt 0.440280 0.400233
vt 0.438479 0.399270
vt 0.418669 0.388682
vt 0.416715 0.388089
vt 0.395220 0.381569
vt 0.393188 0.381368
vt 0.375000 0.379577
vt 0.506569 0.270220
vt 0.513682 0.293669
vt 0.525233 0.315280
vt 0.540778 0.334222
vt 0.559720 0.349767
vt 0.581331 0.361318
vt 0.604780 0.368431
vt 0.625000 0.370423
vt 0.500000 0.000000
vt 0.504577 0.000000
vt 0.343750 0.541667
vt 0.343750 0.958333
vt 0.375000 0.958333
vt 0.375000 0.541667
vt 0.437500 0.541667
vt 0.437500 0.958333
vt 0.468750 0.958333
vt 0.468750 0.541667
vt 0.745423 0.750000
vt 0.745423 0.625000
vt 0.281250 0.541667
vt 0.281250 0.958333
vt 0.312500 0.958333
vt 0.312500 0.541667
vt 0.406250 0.958333
vt 0.406250 0.541667
vt 0.745423 0.500000
vt 0.494661 0.958333
vt 0.494661 0.750000
vt 0.494661 0.541667
vt 0.255340 0.541667
vt 0.255340 0.750000
vt 0.255340 0.958333
vt 0.093750 0.541667
vt 0.093750 0.958333
vt 0.122396 0.958333
vt 0.125000 0.958333
vt 0.125000 0.541667
vt 0.096354 0.541667
vt 0.495423 0.625000
vt 0.495423 0.526259
vt 0.495423 0.750000
vt 0.218750 0.541667
vt 0.218750 0.958333
vt 0.244661 0.958333
vt 0.244661 0.914572
vt 0.244661 0.750000
vt 0.244661 0.541667
vt 0.221354 0.541667
vt 0.153646 0.958333
vt 0.156250 0.958333
vt 0.156250 0.541667
vt 0.127604 0.541667
vt 0.187500 0.541667
vt 0.187500 0.958333
vt 0.216146 0.958333
vt 0.190104 0.541667
vt 0.062500 0.541667
vt 0.062500 0.958333
vt 0.091146 0.958333
vt 0.065104 0.541667
vt 0.375000 0.870423
vt 0.395220 0.868432
vt 0.397174 0.867839
vt 0.418669 0.861318
vt 0.420470 0.860356
vt 0.440280 0.849767
vt 0.441858 0.848471
vt 0.459222 0.834222
vt 0.460517 0.832643
vt 0.474767 0.815279
vt 0.475730 0.813479
vt 0.486318 0.793669
vt 0.486911 0.791714
vt 0.493432 0.770219
vt 0.493632 0.768187
vt 0.031250 0.958333
vt 0.031250 0.541667
vt 0.005339 0.541667
vt 0.005339 0.585431
vt 0.005339 0.750000
vt 0.005339 0.958333
vt 0.028646 0.958333
vt 0.184896 0.958333
vt 0.158854 0.541667
vt 0.059896 0.958333
vt 0.033854 0.541667
vt 0.091146 0.958333
vt 0.065104 0.541666
vt 0.254577 0.723743
vt 0.184896 0.958333
vt 0.158854 0.541667
vt 0.059896 0.958333
vt 0.033854 0.541666
vt 0.718750 0.541667
vt 0.718750 0.958333
vt 0.744661 0.958333
vt 0.744660 0.750000
vt 0.744660 0.541667
vt 0.656250 0.541667
vt 0.656250 0.958333
vt 0.687500 0.958333
vt 0.687500 0.541667
vt 0.531250 0.958333
vt 0.531250 0.541667
vt 0.505339 0.541667
vt 0.505340 0.750000
vt 0.505340 0.958333
vt 0.562500 0.958333
vt 0.562500 0.541667
vt 0.625000 0.541667
vt 0.625000 0.958333
vt 0.593750 0.958333
vt 0.593750 0.541667
vt 0.781250 0.541667
vt 0.781250 0.958333
vt 0.812500 0.958333
vt 0.812500 0.541667
vt 0.906250 0.541667
vt 0.906250 0.958333
vt 0.937500 0.958333
vt 0.937500 0.541667
vt 0.843750 0.958333
vt 0.843750 0.541667
vt 0.755339 0.541667
vt 0.755339 0.750000
vt 0.755339 0.958333
vt 0.875000 0.541667
vt 0.875000 0.958333
vt 0.245423 0.625000
vt 0.245423 0.500000
vt 0.375000 0.370423
vt 0.395220 0.368432
vt 0.418669 0.361318
vt 0.440280 0.349767
vt 0.459222 0.334222
vt 0.474767 0.315280
vt 0.486318 0.293669
vt 0.493432 0.270220
vt 0.495423 0.250000
vt 0.495423 0.125000
vt 0.495423 0.000000
vt 0.968750 0.541667
vt 0.968750 0.958333
vt 0.994661 0.958333
vt 0.994661 0.750000
vt 0.994660 0.541667
vt 0.245423 0.750000
vn -1.0000 0.0000 0.0000
vn -0.0000 -0.0000 -1.0000
vn 1.0000 0.0000 0.0000
vn 0.0000 -0.0000 1.0000
vn 0.0000 -1.0000 -0.0000
vn 0.0000 1.0000 0.0000
vn 0.7730 0.6344 0.0000
vn 0.2903 0.9569 0.0000
vn 0.9569 0.2903 0.0000
vn 0.6344 0.7730 0.0000
vn 0.4714 0.8819 0.0000
vn 0.8819 0.4714 0.0000
vn 0.0980 0.9952 0.0000
vn 0.9952 0.0980 0.0000
vn 0.6344 -0.7730 0.0000
vn 0.9952 -0.0980 0.0000
vn 0.7730 -0.6344 -0.0000
vn 0.9569 -0.2903 -0.0000
vn 0.4714 -0.8819 0.0000
vn 0.0980 -0.9952 -0.0000
vn 0.8819 -0.4714 0.0000
vn 0.2903 -0.9569 -0.0000
vn -0.4714 0.8819 -0.0000
vn -0.8819 0.4714 -0.0000
vn -0.2903 0.9569 0.0000
vn -0.9952 0.0980 0.0000
vn -0.9569 0.2903 0.0000
vn -0.0980 0.9952 -0.0000
vn -0.7730 0.6344 0.0000
vn -0.6344 0.7730 0.0000
vn -0.9569 -0.2903 0.0000
vn -0.4714 -0.8819 0.0000
vn -0.8819 -0.4714 0.0000
vn -0.9952 -0.0980 -0.0000
vn -0.6344 -0.7730 0.0000
vn -0.0980 -0.9952 0.0000
vn -0.2903 -0.9569 0.0000
vn -0.7730 -0.6344 0.0000
usemtl None
s off
f 14/1/1 87/2/1 92/3/1 2/4/1
f 13/5/2 4/6/2 32/7/2 31/8/2 27/9/2 29/10/2 25/11/2 23/12/2 19/13/2 16/14/2 21/15/2 5/16/2
f 12/17/3 20/18/3 17/19/3 6/20/3
f 11/21/4 8/22/4 102/23/4 101/24/4 99/25/4 97/26/4 95/27/4 86/28/4 90/29/4 93/30/4 88/31/4 1/32/4
f 10/33/5 39/34/5 37/35/5 7/36/5
f 9/37/6 103/38/6 102/39/6 8/40/6
f 4/41/6 104/42/6 103/38/6 9/37/6
f 3/43/5 38/44/5 39/34/5 10/33/5
f 7/45/4 11/21/4 1/32/4 124/46/4 123/47/4 121/48/4 115/49/4 113/50/4 117/51/4 111/52/4 106/53/4 109/54/4
f 6/20/4 17/19/4 15/55/4 18/56/4 22/57/4 24/58/4 28/59/4 26/60/4 30/61/4 34/62/4 8/22/4 11/21/4
f 5/16/3 21/15/3 20/18/3 12/17/3
f 3/63/2 13/5/2 5/16/2 54/64/2 46/65/2 81/66/2 48/67/2 69/68/2 50/69/2 84/70/2 40/71/2 72/72/2 44/73/2 76/74/2 42/75/2 74/76/2 35/77/2 82/78/2 38/79/2
f 2/4/2 92/3/2 91/80/2 89/81/2 85/82/2 94/83/2 96/84/2 98/85/2 100/86/2 104/87/2 4/6/2 13/5/2
f 1/88/1 88/89/1 87/2/1 14/1/1
f 29/90/7 28/91/7 24/92/7 25/93/7
f 19/94/8 18/95/8 15/96/8 16/97/8
f 34/98/6 33/99/6 9/37/6 8/40/6
f 31/100/9 30/101/9 26/102/9 27/103/9
f 25/93/10 24/92/10 22/104/10 23/105/10
f 23/105/11 22/104/11 18/95/11 19/94/11
f 27/103/12 26/102/12 28/91/12 29/90/12
f 33/99/6 32/106/6 4/41/6 9/37/6
f 16/97/13 15/96/13 17/107/13 20/108/13 21/109/13
f 30/101/14 31/100/14 32/110/14 33/111/14 34/112/14
f 50/113/15 51/114/15 70/115/15 41/116/15 40/117/15 84/118/15
f 52/119/3 73/120/3 54/64/3 5/16/3 12/17/3
f 53/121/3 52/119/3 12/17/3 6/20/3
f 35/122/16 36/123/16 37/124/16 77/125/16 39/126/16 38/127/16 82/128/16
f 40/117/17 41/116/17 80/129/17 45/130/17 44/131/17 72/132/17
f 42/133/18 43/134/18 75/135/18 36/123/18 35/122/18 74/136/18
f 48/137/19 49/138/19 71/139/19 51/114/19 50/113/19 69/140/19
f 37/141/4 36/142/4 75/143/4 43/144/4 78/145/4 45/146/4 80/147/4 41/148/4 70/149/4 51/150/4 71/151/4 49/152/4 83/153/4 47/154/4 79/155/4 53/121/4 6/20/4 11/21/4 7/45/4
f 47/156/20 46/157/20 54/158/20 73/159/20 52/160/20 53/161/20 79/162/20
f 44/131/21 45/130/21 78/163/21 43/134/21 42/133/21 76/164/21
f 46/157/22 47/156/22 83/165/22 49/138/22 48/137/22 81/166/22
f 50/113/23 51/114/23 67/167/23 49/138/23 48/137/23 66/168/23
f 37/35/5 39/34/5 77/169/5
f 42/133/24 43/134/24 63/170/24 45/130/24 44/131/24 62/171/24
f 48/137/25 49/138/25 65/172/25 47/156/25 46/157/25 64/173/25
f 100/174/26 101/175/26 102/176/26 103/177/26 104/178/26
f 96/179/24 97/180/24 99/181/24 98/182/24
f 98/182/27 99/181/27 101/175/27 100/174/27
f 93/183/28 91/184/28 92/185/28 87/186/28 88/187/28
f 91/184/25 93/183/25 90/188/25 89/189/25
f 94/190/29 95/191/29 97/180/29 96/179/29
f 89/189/23 90/188/23 86/192/23 85/193/23
f 85/193/30 86/192/30 95/191/30 94/190/30
f 105/194/31 106/195/31 111/196/31 110/197/31
f 114/198/32 115/199/32 121/200/32 120/201/32
f 110/197/33 111/196/33 117/202/33 116/203/33
f 106/195/34 105/194/34 107/204/34 108/205/34 109/206/34
f 112/207/35 113/208/35 115/199/35 114/198/35
f 108/209/5 107/210/5 3/43/5 10/33/5
f 107/211/2 105/212/2 110/213/2 116/214/2 112/215/2 114/216/2 120/217/2 122/218/2 118/219/2 2/4/2 13/5/2 3/63/2
f 118/219/1 119/220/1 14/1/1 2/4/1
f 119/220/1 124/221/1 1/88/1 14/1/1
f 122/222/36 123/223/36 124/224/36 119/225/36 118/226/36
f 109/227/5 108/209/5 10/33/5 7/36/5
f 120/201/37 121/200/37 123/223/37 122/222/37
f 116/203/38 117/202/38 113/208/38 112/207/38
l 56 55
l 57 39
l 35 57
l 38 57
l 58 59
l 61 60
l 63 62
l 65 64
l 67 66
l 53 68
l 54 52
l 47 68
l 68 52
