# Blender v2.82 (sub 7) OBJ File: 'TriangleTut.blend'
# www.blender.org
mtllib TriangleTut.mtl
g Triangle
v -1.000000 1.000000 -1.000000
v -1.000000 -1.000000 1.000000
v -1.000000 -1.000000 -1.000000
v 1.000000 -1.000000 -1.000000
vt 0.000000 0.000000
vt 0.000000 0.000000
vt 0.000000 0.000000
vt 0.000000 0.000000
vn -1.0000 -0.0000 0.0000
vn 0.0000 0.0000 -1.0000
vn 0.5774 0.5774 0.5774
vn 0.0000 -1.0000 0.0000
usemtl None
s off
f 3/1/1 2/2/1 1/3/1
f 3/1/2 1/3/2 4/4/2
f 4/4/3 1/3/3 2/2/3
f 2/2/4 3/1/4 4/4/4
