# Blender v2.82 (sub 7) OBJ File: 'Table_with_hole.blend'
# www.blender.org
mtllib Table_with_hole.mtl
o TableTop_Plane
v -0.900000 1.198769 -1.000000
v -1.000000 1.198769 -0.900000
v -0.900000 1.318769 -0.900000
v 0.000000 1.198769 -1.000000
v 0.900000 1.198769 -1.000000
v 1.000000 1.198769 -0.900000
v 0.000000 1.318769 -0.900000
v 0.900000 1.318769 -0.900000
v -1.000000 1.198769 0.000000
v -0.900000 1.198769 1.000000
v -0.600000 1.238769 0.300000
v -1.000000 1.198769 0.900000
v -0.600000 1.238769 0.600000
v 1.000000 1.198769 0.000000
v 0.000000 1.198769 1.000000
v -0.300000 1.238769 0.300000
v 0.900000 1.198769 1.000000
v 0.900000 1.318769 0.000000
v 1.000000 1.198769 0.900000
v -0.300000 1.238769 0.600000
v 0.900000 1.318769 0.900000
v -0.900000 1.118769 -1.000000
v -1.000000 1.118769 -0.900000
v -0.900000 0.998769 -0.900000
v -0.900000 1.158769 -1.000000
v -1.000000 1.158769 -0.900000
v 0.000000 1.118769 -1.000000
v 0.900000 1.118769 -1.000000
v 1.000000 1.118769 -0.900000
v 0.000000 0.998769 -0.900000
v 0.900000 0.998769 -0.900000
v 0.000000 1.158769 -1.000000
v 0.900000 1.158769 -1.000000
v 1.000000 1.158769 -0.900000
v -1.000000 1.118769 0.000000
v -0.900000 1.118769 1.000000
v -0.900000 0.998769 0.000000
v -1.000000 1.118769 0.900000
v -0.900000 0.998769 0.900000
v -1.000000 1.158769 0.000000
v -0.900000 1.158769 1.000000
v -1.000000 1.158769 0.900000
v 1.000000 1.118769 0.000000
v 0.000000 1.118769 1.000000
v 0.000000 0.998769 0.000000
v 0.900000 1.118769 1.000000
v 0.900000 0.998769 0.000000
v 1.000000 1.118769 0.900000
v 0.000000 0.998769 0.900000
v 0.900000 0.998769 0.900000
v 1.000000 1.158769 0.000000
v 0.000000 1.158769 1.000000
v 0.900000 1.158769 1.000000
v 1.000000 1.158769 0.900000
v 0.000000 1.318769 0.000000
v -0.900000 1.318769 0.000000
v 0.000000 1.318769 0.900000
v -0.900000 1.318769 0.900000
v 0.000000 1.318769 0.000000
v -0.900000 1.318769 0.000000
v 0.000000 1.318769 0.900000
v -0.900000 1.318769 0.900000
v -0.100000 1.318769 0.100000
v -0.800000 1.318769 0.100000
v -0.100000 1.318769 0.800000
v -0.800000 1.318769 0.800000
v -0.200000 1.318769 0.200000
v -0.700000 1.318769 0.200000
v -0.200000 1.318769 0.700000
v -0.700000 1.318769 0.700000
vt 0.050000 0.950000
vt 0.500000 0.950000
vt 0.500000 1.000000
vt 0.050000 1.000000
vt 0.000000 0.950000
vt 0.000000 0.500000
vt 0.050000 0.500000
vt 0.500000 0.500000
vt 0.050000 1.000000
vt 0.000000 0.950000
vt 0.500000 1.000000
vt 0.000000 0.500000
vt 0.050000 0.950000
vt 0.050000 1.000000
vt 0.000000 0.950000
vt 0.000000 0.500000
vt 0.050000 0.500000
vt 0.000000 0.950000
vt 0.050000 1.000000
vt 0.000000 0.500000
vt 0.050000 0.950000
vt 0.050000 1.000000
vt 0.500000 1.000000
vt 0.500000 0.950000
vt 0.000000 0.950000
vt 0.200000 0.650000
vt 0.200000 0.800000
vt 0.350000 0.800000
vt 0.350000 0.650000
vt 0.000000 0.950000
vt 0.050000 1.000000
vt 0.500000 1.000000
vt 0.050000 0.950000
vt 0.050000 1.000000
vt 0.000000 0.950000
vt 0.050000 1.000000
vt 0.000000 0.950000
vt 0.050000 0.950000
vt 0.050000 1.000000
vt 0.500000 1.000000
vt 0.500000 0.950000
vt 0.000000 0.950000
vt 0.000000 0.500000
vt 0.050000 0.500000
vt 0.500000 0.500000
vt 0.050000 0.950000
vt 0.050000 1.000000
vt 0.000000 0.950000
vt 0.000000 0.500000
vt 0.050000 0.500000
vt 0.050000 0.950000
vt 0.500000 0.950000
vt 0.500000 1.000000
vt 0.050000 1.000000
vt 0.000000 0.950000
vt 0.050000 0.950000
vt 0.050000 1.000000
vt 0.000000 0.950000
vt 0.050000 0.500000
vt 0.500000 0.500000
vt 0.500000 0.950000
vt 0.050000 0.950000
vt 0.100000 0.550000
vt 0.450000 0.550000
vt 0.450000 0.900000
vt 0.100000 0.900000
vt 0.150000 0.600000
vt 0.400000 0.600000
vt 0.400000 0.850000
vt 0.150000 0.850000
vn 0.0000 0.6402 -0.7682
vn -0.6092 0.5077 -0.6092
vn -0.7682 0.6402 0.0000
vn 0.0000 1.0000 0.0000
vn -0.7071 0.0000 -0.7071
vn 0.0000 0.0000 -1.0000
vn -1.0000 0.0000 0.0000
vn 0.6092 0.5077 -0.6092
vn 0.7682 0.6402 0.0000
vn 0.7071 0.0000 -0.7071
vn 1.0000 0.0000 0.0000
vn 0.0000 0.6402 0.7682
vn -0.6092 0.5077 0.6092
vn -0.7071 0.0000 0.7071
vn 0.0000 0.0000 1.0000
vn 0.6092 0.5077 0.6092
vn 0.7071 0.0000 0.7071
vn 0.0000 -0.6402 -0.7682
vn -0.6092 -0.5077 -0.6092
vn -0.7682 -0.6402 0.0000
vn 0.0000 -1.0000 0.0000
vn 0.6092 -0.5077 -0.6092
vn 0.7682 -0.6402 0.0000
vn 0.0000 -0.6402 0.7682
vn -0.6092 -0.5077 0.6092
vn 0.6092 -0.5077 0.6092
vn 0.0000 0.7809 0.6247
vn -0.6247 0.7809 0.0000
vn 0.6247 0.7809 0.0000
vn 0.0000 0.7809 -0.6247
usemtl None
s off
f 3/1/1 7/2/1 4/3/1 1/4/1
f 1/4/2 2/5/2 3/1/2
f 9/6/3 56/7/3 3/1/3 2/5/3
f 56/7/4 55/8/4 7/2/4 3/1/4
f 2/5/5 1/4/5 25/9/5 26/10/5
f 1/4/6 4/3/6 32/11/6 25/9/6
f 9/6/7 2/5/7 26/10/7 40/12/7
f 8/13/1 5/14/1 4/3/1 7/2/1
f 5/14/8 8/13/8 6/15/8
f 14/16/9 6/15/9 8/13/9 18/17/9
f 18/17/4 8/13/4 7/2/4 55/8/4
f 6/15/10 34/18/10 33/19/10 5/14/10
f 5/14/6 33/19/6 32/11/6 4/3/6
f 14/16/11 51/20/11 34/18/11 6/15/11
f 58/21/12 10/22/12 15/23/12 57/24/12
f 10/22/13 58/21/13 12/25/13
f 9/6/3 12/25/3 58/21/3 56/7/3
f 11/26/4 13/27/4 20/28/4 16/29/4
f 12/25/14 42/30/14 41/31/14 10/22/14
f 10/22/15 41/31/15 52/32/15 15/23/15
f 9/6/7 40/12/7 42/30/7 12/25/7
f 21/33/12 57/24/12 15/23/12 17/34/12
f 17/34/16 19/35/16 21/33/16
f 14/16/9 18/17/9 21/33/9 19/35/9
f 18/17/4 55/8/4 57/24/4 21/33/4
f 19/35/17 17/34/17 53/36/17 54/37/17
f 17/34/15 15/23/15 52/32/15 53/36/15
f 14/16/11 19/35/11 54/37/11 51/20/11
f 24/38/18 22/39/18 27/40/18 30/41/18
f 22/39/19 24/38/19 23/42/19
f 35/43/20 23/42/20 24/38/20 37/44/20
f 37/44/21 24/38/21 30/41/21 45/45/21
f 23/42/5 26/10/5 25/9/5 22/39/5
f 22/39/6 25/9/6 32/11/6 27/40/6
f 35/43/7 40/12/7 26/10/7 23/42/7
f 31/46/18 30/41/18 27/40/18 28/47/18
f 28/47/22 29/48/22 31/46/22
f 43/49/23 47/50/23 31/46/23 29/48/23
f 47/50/21 45/45/21 30/41/21 31/46/21
f 29/48/10 28/47/10 33/19/10 34/18/10
f 28/47/6 27/40/6 32/11/6 33/19/6
f 43/49/11 29/48/11 34/18/11 51/20/11
f 39/51/24 49/52/24 44/53/24 36/54/24
f 36/54/25 38/55/25 39/51/25
f 35/43/20 37/44/20 39/51/20 38/55/20
f 37/44/21 45/45/21 49/52/21 39/51/21
f 38/55/14 36/54/14 41/31/14 42/30/14
f 36/54/15 44/53/15 52/32/15 41/31/15
f 35/43/7 38/55/7 42/30/7 40/12/7
f 50/56/24 46/57/24 44/53/24 49/52/24
f 46/57/26 50/56/26 48/58/26
f 43/49/23 48/58/23 50/56/23 47/50/23
f 47/50/21 50/56/21 49/52/21 45/45/21
f 48/58/17 54/37/17 53/36/17 46/57/17
f 46/57/15 53/36/15 52/32/15 44/53/15
f 43/49/11 51/20/11 54/37/11 48/58/11
f 60/59/15 59/60/15 55/8/15 56/7/15
f 59/60/15 61/61/15 57/24/15 55/8/15
f 62/62/15 60/59/15 56/7/15 58/21/15
f 61/61/15 62/62/15 58/21/15 57/24/15
f 64/63/4 63/64/4 59/60/4 60/59/4
f 63/64/4 65/65/4 61/61/4 59/60/4
f 66/66/4 64/63/4 60/59/4 62/62/4
f 65/65/4 66/66/4 62/62/4 61/61/4
f 68/67/4 67/68/4 63/64/4 64/63/4
f 67/68/4 69/69/4 65/65/4 63/64/4
f 70/70/4 68/67/4 64/63/4 66/66/4
f 69/69/4 70/70/4 66/66/4 65/65/4
f 11/26/27 16/29/27 67/68/27 68/67/27
f 16/29/28 20/28/28 69/69/28 67/68/28
f 13/27/29 11/26/29 68/67/29 70/70/29
f 20/28/30 13/27/30 70/70/30 69/69/30
o LeftFrontLeg_Plane.001
v -0.799652 0.000000 0.650746
v -0.749652 0.000000 0.650746
v -0.749652 0.000000 0.600746
v -0.599652 0.000000 0.650746
v -0.699652 0.000000 0.650746
v -0.649652 0.000000 0.650746
v -0.699652 0.000000 0.600746
v -0.649652 0.000000 0.600746
v -0.799652 0.000000 0.750746
v -0.749652 0.000000 0.750746
v -0.749652 0.000000 0.700746
v -0.799652 0.000000 0.700746
v -0.749652 0.000000 0.800746
v -0.599652 0.000000 0.750746
v -0.699652 0.000000 0.750746
v -0.649652 0.000000 0.750746
v -0.649652 0.000000 0.700746
v -0.699652 0.000000 0.800746
v -0.599652 0.000000 0.700746
v -0.649652 0.000000 0.800746
v -0.699652 0.000000 0.700746
v -0.899652 1.000000 0.600746
v -0.799652 1.000000 0.600746
v -0.799652 1.000000 0.500746
v -0.499652 1.000000 0.600746
v -0.699652 1.000000 0.600746
v -0.599652 1.000000 0.600746
v -0.699652 1.000000 0.500746
v -0.599652 1.000000 0.500746
v -0.899652 1.000000 0.800746
v -0.799652 1.000000 0.800746
v -0.799652 1.000000 0.700746
v -0.899652 1.000000 0.700746
v -0.799652 1.000000 0.900746
v -0.499652 1.000000 0.800746
v -0.699652 1.000000 0.800746
v -0.599652 1.000000 0.800746
v -0.599652 1.000000 0.700746
v -0.699652 1.000000 0.900746
v -0.499652 1.000000 0.700746
v -0.599652 1.000000 0.900746
v -0.699652 1.000000 0.700746
vt 0.000000 0.750000
vt 0.250000 1.000000
vt 0.250000 0.750000
vt 0.500000 1.000000
vt 0.500000 0.750000
vt 0.000000 0.500000
vt 0.250000 0.500000
vt 0.500000 0.500000
vt 0.000000 0.750000
vt 0.250000 0.750000
vt 0.250000 1.000000
vt 0.000000 0.500000
vt 0.250000 0.500000
vt 0.000000 0.750000
vt 0.250000 0.750000
vt 0.250000 1.000000
vt 0.500000 0.750000
vt 0.500000 1.000000
vt 0.000000 0.750000
vt 0.250000 1.000000
vt 0.250000 0.750000
vt 0.000000 0.750000
vt 0.250000 0.750000
vt 0.250000 1.000000
vt 0.500000 0.750000
vt 0.500000 1.000000
vt 0.000000 0.500000
vt 0.250000 0.500000
vt 0.500000 0.500000
vt 0.000000 0.750000
vt 0.250000 1.000000
vt 0.250000 0.750000
vt 0.000000 0.500000
vt 0.250000 0.500000
vt 0.000000 0.750000
vt 0.250000 1.000000
vt 0.250000 0.750000
vt 0.500000 1.000000
vt 0.500000 0.750000
vt 0.000000 0.750000
vt 0.250000 0.750000
vt 0.250000 1.000000
vn 0.0000 -1.0000 0.0000
vn 0.0000 1.0000 0.0000
vn 0.0000 -0.0995 0.9950
vn -0.7032 -0.1055 -0.7032
vn 0.7032 -0.1055 -0.7032
vn 0.0000 -0.0995 -0.9950
vn -0.9950 -0.0995 0.0000
vn 0.9950 -0.0995 0.0000
vn 0.7032 -0.1055 0.7032
vn -0.7032 -0.1055 0.7032
usemtl None
s off
f 71/71/31 73/72/31 72/73/31
f 72/73/31 73/72/31 77/74/31 75/75/31
f 82/76/31 71/71/31 72/73/31 81/77/31
f 81/77/31 72/73/31 75/75/31 91/78/31
f 74/79/31 76/80/31 78/81/31
f 76/80/31 75/75/31 77/74/31 78/81/31
f 89/82/31 87/83/31 76/80/31 74/79/31
f 87/83/31 91/78/31 75/75/31 76/80/31
f 79/84/31 80/85/31 83/86/31
f 80/85/31 85/87/31 88/88/31 83/86/31
f 82/76/31 81/77/31 80/85/31 79/84/31
f 81/77/31 91/78/31 85/87/31 80/85/31
f 84/89/31 90/90/31 86/91/31
f 86/91/31 90/90/31 88/88/31 85/87/31
f 89/82/31 84/89/31 86/91/31 87/83/31
f 87/83/31 86/91/31 85/87/31 91/78/31
f 92/92/32 93/93/32 94/94/32
f 93/93/32 96/95/32 98/96/32 94/94/32
f 103/97/32 102/98/32 93/93/32 92/92/32
f 102/98/32 112/99/32 96/95/32 93/93/32
f 95/100/32 99/101/32 97/102/32
f 97/102/32 99/101/32 98/96/32 96/95/32
f 110/103/32 95/100/32 97/102/32 108/104/32
f 108/104/32 97/102/32 96/95/32 112/99/32
f 100/105/32 104/106/32 101/107/32
f 101/107/32 104/106/32 109/108/32 106/109/32
f 103/97/32 100/105/32 101/107/32 102/98/32
f 102/98/32 101/107/32 106/109/32 112/99/32
f 105/110/32 107/111/32 111/112/32
f 107/111/32 106/109/32 109/108/32 111/112/32
f 110/103/32 108/104/32 107/111/32 105/110/32
f 108/104/32 112/99/32 106/109/32 107/111/32
f 83/86/33 88/88/33 109/108/33 104/106/33
f 88/88/33 90/90/33 111/112/33 109/108/33
f 73/72/34 71/71/34 92/92/34 94/94/34
f 74/79/35 78/81/35 99/101/35 95/100/35
f 78/81/36 77/74/36 98/96/36 99/101/36
f 82/76/37 79/84/37 100/105/37 103/97/37
f 89/82/38 74/79/38 95/100/38 110/103/38
f 71/71/37 82/76/37 103/97/37 92/92/37
f 90/90/39 84/89/39 105/110/39 111/112/39
f 77/74/36 73/72/36 94/94/36 98/96/36
f 84/89/38 89/82/38 110/103/38 105/110/38
f 79/84/40 83/86/40 104/106/40 100/105/40
o RightFrontLeg_Plane.002
v 0.596122 0.000000 0.650746
v 0.646122 0.000000 0.650746
v 0.646122 0.000000 0.600746
v 0.796122 0.000000 0.650746
v 0.696122 0.000000 0.650746
v 0.746122 0.000000 0.650746
v 0.696122 0.000000 0.600746
v 0.746122 0.000000 0.600746
v 0.596122 0.000000 0.750746
v 0.646122 0.000000 0.750746
v 0.646122 0.000000 0.700746
v 0.596122 0.000000 0.700746
v 0.646122 0.000000 0.800746
v 0.796122 0.000000 0.750746
v 0.696122 0.000000 0.750746
v 0.746122 0.000000 0.750746
v 0.746122 0.000000 0.700746
v 0.696122 0.000000 0.800746
v 0.796122 0.000000 0.700746
v 0.746122 0.000000 0.800746
v 0.696122 0.000000 0.700746
v 0.496122 1.000000 0.600746
v 0.596122 1.000000 0.600746
v 0.596122 1.000000 0.500746
v 0.896122 1.000000 0.600746
v 0.696122 1.000000 0.600746
v 0.796122 1.000000 0.600746
v 0.696122 1.000000 0.500746
v 0.796122 1.000000 0.500746
v 0.496122 1.000000 0.800746
v 0.596122 1.000000 0.800746
v 0.596122 1.000000 0.700746
v 0.496122 1.000000 0.700746
v 0.596122 1.000000 0.900746
v 0.896122 1.000000 0.800746
v 0.696122 1.000000 0.800746
v 0.796122 1.000000 0.800746
v 0.796122 1.000000 0.700746
v 0.696122 1.000000 0.900746
v 0.896122 1.000000 0.700746
v 0.796122 1.000000 0.900746
v 0.696122 1.000000 0.700746
vt 0.000000 0.750000
vt 0.250000 1.000000
vt 0.250000 0.750000
vt 0.500000 1.000000
vt 0.500000 0.750000
vt 0.000000 0.500000
vt 0.250000 0.500000
vt 0.500000 0.500000
vt 0.000000 0.750000
vt 0.250000 0.750000
vt 0.250000 1.000000
vt 0.000000 0.500000
vt 0.250000 0.500000
vt 0.000000 0.750000
vt 0.250000 0.750000
vt 0.250000 1.000000
vt 0.500000 0.750000
vt 0.500000 1.000000
vt 0.000000 0.750000
vt 0.250000 1.000000
vt 0.250000 0.750000
vt 0.000000 0.750000
vt 0.250000 0.750000
vt 0.250000 1.000000
vt 0.500000 0.750000
vt 0.500000 1.000000
vt 0.000000 0.500000
vt 0.250000 0.500000
vt 0.500000 0.500000
vt 0.000000 0.750000
vt 0.250000 1.000000
vt 0.250000 0.750000
vt 0.000000 0.500000
vt 0.250000 0.500000
vt 0.000000 0.750000
vt 0.250000 1.000000
vt 0.250000 0.750000
vt 0.500000 1.000000
vt 0.500000 0.750000
vt 0.000000 0.750000
vt 0.250000 0.750000
vt 0.250000 1.000000
vn 0.0000 -1.0000 0.0000
vn 0.0000 1.0000 0.0000
vn 0.0000 -0.0995 0.9950
vn -0.7032 -0.1055 -0.7032
vn 0.7032 -0.1055 -0.7032
vn 0.0000 -0.0995 -0.9950
vn -0.9950 -0.0995 0.0000
vn 0.9950 -0.0995 0.0000
vn 0.7032 -0.1055 0.7032
vn -0.7032 -0.1055 0.7032
usemtl None
s off
f 113/113/41 115/114/41 114/115/41
f 114/115/41 115/114/41 119/116/41 117/117/41
f 124/118/41 113/113/41 114/115/41 123/119/41
f 123/119/41 114/115/41 117/117/41 133/120/41
f 116/121/41 118/122/41 120/123/41
f 118/122/41 117/117/41 119/116/41 120/123/41
f 131/124/41 129/125/41 118/122/41 116/121/41
f 129/125/41 133/120/41 117/117/41 118/122/41
f 121/126/41 122/127/41 125/128/41
f 122/127/41 127/129/41 130/130/41 125/128/41
f 124/118/41 123/119/41 122/127/41 121/126/41
f 123/119/41 133/120/41 127/129/41 122/127/41
f 126/131/41 132/132/41 128/133/41
f 128/133/41 132/132/41 130/130/41 127/129/41
f 131/124/41 126/131/41 128/133/41 129/125/41
f 129/125/41 128/133/41 127/129/41 133/120/41
f 134/134/42 135/135/42 136/136/42
f 135/135/42 138/137/42 140/138/42 136/136/42
f 145/139/42 144/140/42 135/135/42 134/134/42
f 144/140/42 154/141/42 138/137/42 135/135/42
f 137/142/42 141/143/42 139/144/42
f 139/144/42 141/143/42 140/138/42 138/137/42
f 152/145/42 137/142/42 139/144/42 150/146/42
f 150/146/42 139/144/42 138/137/42 154/141/42
f 142/147/42 146/148/42 143/149/42
f 143/149/42 146/148/42 151/150/42 148/151/42
f 145/139/42 142/147/42 143/149/42 144/140/42
f 144/140/42 143/149/42 148/151/42 154/141/42
f 147/152/42 149/153/42 153/154/42
f 149/153/42 148/151/42 151/150/42 153/154/42
f 152/145/42 150/146/42 149/153/42 147/152/42
f 150/146/42 154/141/42 148/151/42 149/153/42
f 125/128/43 130/130/43 151/150/43 146/148/43
f 130/130/43 132/132/43 153/154/43 151/150/43
f 115/114/44 113/113/44 134/134/44 136/136/44
f 116/121/45 120/123/45 141/143/45 137/142/45
f 120/123/46 119/116/46 140/138/46 141/143/46
f 124/118/47 121/126/47 142/147/47 145/139/47
f 131/124/48 116/121/48 137/142/48 152/145/48
f 113/113/47 124/118/47 145/139/47 134/134/47
f 132/132/49 126/131/49 147/152/49 153/154/49
f 119/116/46 115/114/46 136/136/46 140/138/46
f 126/131/48 131/124/48 152/145/48 147/152/48
f 121/126/50 125/128/50 146/148/50 142/147/50
o LeftBackLeg_Plane.003
v -0.799652 0.000000 -0.750107
v -0.749652 0.000000 -0.750107
v -0.749652 0.000000 -0.800107
v -0.599652 0.000000 -0.750107
v -0.699652 0.000000 -0.750107
v -0.649652 0.000000 -0.750107
v -0.699652 0.000000 -0.800107
v -0.649652 0.000000 -0.800107
v -0.799652 0.000000 -0.650107
v -0.749652 0.000000 -0.650107
v -0.749652 0.000000 -0.700107
v -0.799652 0.000000 -0.700107
v -0.749652 0.000000 -0.600107
v -0.599652 0.000000 -0.650107
v -0.699652 0.000000 -0.650107
v -0.649652 0.000000 -0.650107
v -0.649652 0.000000 -0.700107
v -0.699652 0.000000 -0.600107
v -0.599652 0.000000 -0.700107
v -0.649652 0.000000 -0.600107
v -0.699652 0.000000 -0.700107
v -0.899652 1.000000 -0.800107
v -0.799652 1.000000 -0.800107
v -0.799652 1.000000 -0.900107
v -0.499652 1.000000 -0.800107
v -0.699652 1.000000 -0.800107
v -0.599652 1.000000 -0.800107
v -0.699652 1.000000 -0.900107
v -0.599652 1.000000 -0.900107
v -0.899652 1.000000 -0.600107
v -0.799652 1.000000 -0.600107
v -0.799652 1.000000 -0.700107
v -0.899652 1.000000 -0.700107
v -0.799652 1.000000 -0.500107
v -0.499652 1.000000 -0.600107
v -0.699652 1.000000 -0.600107
v -0.599652 1.000000 -0.600107
v -0.599652 1.000000 -0.700107
v -0.699652 1.000000 -0.500107
v -0.499652 1.000000 -0.700107
v -0.599652 1.000000 -0.500107
v -0.699652 1.000000 -0.700107
vt 0.000000 0.750000
vt 0.250000 1.000000
vt 0.250000 0.750000
vt 0.500000 1.000000
vt 0.500000 0.750000
vt 0.000000 0.500000
vt 0.250000 0.500000
vt 0.500000 0.500000
vt 0.000000 0.750000
vt 0.250000 0.750000
vt 0.250000 1.000000
vt 0.000000 0.500000
vt 0.250000 0.500000
vt 0.000000 0.750000
vt 0.250000 0.750000
vt 0.250000 1.000000
vt 0.500000 0.750000
vt 0.500000 1.000000
vt 0.000000 0.750000
vt 0.250000 1.000000
vt 0.250000 0.750000
vt 0.000000 0.750000
vt 0.250000 0.750000
vt 0.250000 1.000000
vt 0.500000 0.750000
vt 0.500000 1.000000
vt 0.000000 0.500000
vt 0.250000 0.500000
vt 0.500000 0.500000
vt 0.000000 0.750000
vt 0.250000 1.000000
vt 0.250000 0.750000
vt 0.000000 0.500000
vt 0.250000 0.500000
vt 0.000000 0.750000
vt 0.250000 1.000000
vt 0.250000 0.750000
vt 0.500000 1.000000
vt 0.500000 0.750000
vt 0.000000 0.750000
vt 0.250000 0.750000
vt 0.250000 1.000000
vn 0.0000 -1.0000 0.0000
vn 0.0000 1.0000 0.0000
vn 0.0000 -0.0995 0.9950
vn -0.7032 -0.1055 -0.7032
vn 0.7032 -0.1055 -0.7032
vn 0.0000 -0.0995 -0.9950
vn -0.9950 -0.0995 0.0000
vn 0.9950 -0.0995 0.0000
vn 0.7032 -0.1055 0.7032
vn -0.7032 -0.1055 0.7032
usemtl None
s off
f 155/155/51 157/156/51 156/157/51
f 156/157/51 157/156/51 161/158/51 159/159/51
f 166/160/51 155/155/51 156/157/51 165/161/51
f 165/161/51 156/157/51 159/159/51 175/162/51
f 158/163/51 160/164/51 162/165/51
f 160/164/51 159/159/51 161/158/51 162/165/51
f 173/166/51 171/167/51 160/164/51 158/163/51
f 171/167/51 175/162/51 159/159/51 160/164/51
f 163/168/51 164/169/51 167/170/51
f 164/169/51 169/171/51 172/172/51 167/170/51
f 166/160/51 165/161/51 164/169/51 163/168/51
f 165/161/51 175/162/51 169/171/51 164/169/51
f 168/173/51 174/174/51 170/175/51
f 170/175/51 174/174/51 172/172/51 169/171/51
f 173/166/51 168/173/51 170/175/51 171/167/51
f 171/167/51 170/175/51 169/171/51 175/162/51
f 176/176/52 177/177/52 178/178/52
f 177/177/52 180/179/52 182/180/52 178/178/52
f 187/181/52 186/182/52 177/177/52 176/176/52
f 186/182/52 196/183/52 180/179/52 177/177/52
f 179/184/52 183/185/52 181/186/52
f 181/186/52 183/185/52 182/180/52 180/179/52
f 194/187/52 179/184/52 181/186/52 192/188/52
f 192/188/52 181/186/52 180/179/52 196/183/52
f 184/189/52 188/190/52 185/191/52
f 185/191/52 188/190/52 193/192/52 190/193/52
f 187/181/52 184/189/52 185/191/52 186/182/52
f 186/182/52 185/191/52 190/193/52 196/183/52
f 189/194/52 191/195/52 195/196/52
f 191/195/52 190/193/52 193/192/52 195/196/52
f 194/187/52 192/188/52 191/195/52 189/194/52
f 192/188/52 196/183/52 190/193/52 191/195/52
f 167/170/53 172/172/53 193/192/53 188/190/53
f 172/172/53 174/174/53 195/196/53 193/192/53
f 157/156/54 155/155/54 176/176/54 178/178/54
f 158/163/55 162/165/55 183/185/55 179/184/55
f 162/165/56 161/158/56 182/180/56 183/185/56
f 166/160/57 163/168/57 184/189/57 187/181/57
f 173/166/58 158/163/58 179/184/58 194/187/58
f 155/155/57 166/160/57 187/181/57 176/176/57
f 174/174/59 168/173/59 189/194/59 195/196/59
f 161/158/56 157/156/56 178/178/56 182/180/56
f 168/173/58 173/166/58 194/187/58 189/194/58
f 163/168/60 167/170/60 188/190/60 184/189/60
o RightBackLeg_Plane.004
v 0.596122 0.000000 -0.750107
v 0.646122 0.000000 -0.750107
v 0.646122 0.000000 -0.800107
v 0.796122 0.000000 -0.750107
v 0.696122 0.000000 -0.750107
v 0.746122 0.000000 -0.750107
v 0.696122 0.000000 -0.800107
v 0.746122 0.000000 -0.800107
v 0.596122 0.000000 -0.650107
v 0.646122 0.000000 -0.650107
v 0.646122 0.000000 -0.700107
v 0.596122 0.000000 -0.700107
v 0.646122 0.000000 -0.600107
v 0.796122 0.000000 -0.650107
v 0.696122 0.000000 -0.650107
v 0.746122 0.000000 -0.650107
v 0.746122 0.000000 -0.700107
v 0.696122 0.000000 -0.600107
v 0.796122 0.000000 -0.700107
v 0.746122 0.000000 -0.600107
v 0.696122 0.000000 -0.700107
v 0.496122 1.000000 -0.800107
v 0.596122 1.000000 -0.800107
v 0.596122 1.000000 -0.900107
v 0.896122 1.000000 -0.800107
v 0.696122 1.000000 -0.800107
v 0.796122 1.000000 -0.800107
v 0.696122 1.000000 -0.900107
v 0.796122 1.000000 -0.900107
v 0.496122 1.000000 -0.600107
v 0.596122 1.000000 -0.600107
v 0.596122 1.000000 -0.700107
v 0.496122 1.000000 -0.700107
v 0.596122 1.000000 -0.500107
v 0.896122 1.000000 -0.600107
v 0.696122 1.000000 -0.600107
v 0.796122 1.000000 -0.600107
v 0.796122 1.000000 -0.700107
v 0.696122 1.000000 -0.500107
v 0.896122 1.000000 -0.700107
v 0.796122 1.000000 -0.500107
v 0.696122 1.000000 -0.700107
vt 0.000000 0.750000
vt 0.250000 1.000000
vt 0.250000 0.750000
vt 0.500000 1.000000
vt 0.500000 0.750000
vt 0.000000 0.500000
vt 0.250000 0.500000
vt 0.500000 0.500000
vt 0.000000 0.750000
vt 0.250000 0.750000
vt 0.250000 1.000000
vt 0.000000 0.500000
vt 0.250000 0.500000
vt 0.000000 0.750000
vt 0.250000 0.750000
vt 0.250000 1.000000
vt 0.500000 0.750000
vt 0.500000 1.000000
vt 0.000000 0.750000
vt 0.250000 1.000000
vt 0.250000 0.750000
vt 0.000000 0.750000
vt 0.250000 0.750000
vt 0.250000 1.000000
vt 0.500000 0.750000
vt 0.500000 1.000000
vt 0.000000 0.500000
vt 0.250000 0.500000
vt 0.500000 0.500000
vt 0.000000 0.750000
vt 0.250000 1.000000
vt 0.250000 0.750000
vt 0.000000 0.500000
vt 0.250000 0.500000
vt 0.000000 0.750000
vt 0.250000 1.000000
vt 0.250000 0.750000
vt 0.500000 1.000000
vt 0.500000 0.750000
vt 0.000000 0.750000
vt 0.250000 0.750000
vt 0.250000 1.000000
vn 0.0000 -1.0000 0.0000
vn 0.0000 1.0000 0.0000
vn 0.0000 -0.0995 0.9950
vn -0.7032 -0.1055 -0.7032
vn 0.7032 -0.1055 -0.7032
vn 0.0000 -0.0995 -0.9950
vn -0.9950 -0.0995 0.0000
vn 0.9950 -0.0995 0.0000
vn 0.7032 -0.1055 0.7032
vn -0.7032 -0.1055 0.7032
usemtl None
s off
f 197/197/61 199/198/61 198/199/61
f 198/199/61 199/198/61 203/200/61 201/201/61
f 208/202/61 197/197/61 198/199/61 207/203/61
f 207/203/61 198/199/61 201/201/61 217/204/61
f 200/205/61 202/206/61 204/207/61
f 202/206/61 201/201/61 203/200/61 204/207/61
f 215/208/61 213/209/61 202/206/61 200/205/61
f 213/209/61 217/204/61 201/201/61 202/206/61
f 205/210/61 206/211/61 209/212/61
f 206/211/61 211/213/61 214/214/61 209/212/61
f 208/202/61 207/203/61 206/211/61 205/210/61
f 207/203/61 217/204/61 211/213/61 206/211/61
f 210/215/61 216/216/61 212/217/61
f 212/217/61 216/216/61 214/214/61 211/213/61
f 215/208/61 210/215/61 212/217/61 213/209/61
f 213/209/61 212/217/61 211/213/61 217/204/61
f 218/218/62 219/219/62 220/220/62
f 219/219/62 222/221/62 224/222/62 220/220/62
f 229/223/62 228/224/62 219/219/62 218/218/62
f 228/224/62 238/225/62 222/221/62 219/219/62
f 221/226/62 225/227/62 223/228/62
f 223/228/62 225/227/62 224/222/62 222/221/62
f 236/229/62 221/226/62 223/228/62 234/230/62
f 234/230/62 223/228/62 222/221/62 238/225/62
f 226/231/62 230/232/62 227/233/62
f 227/233/62 230/232/62 235/234/62 232/235/62
f 229/223/62 226/231/62 227/233/62 228/224/62
f 228/224/62 227/233/62 232/235/62 238/225/62
f 231/236/62 233/237/62 237/238/62
f 233/237/62 232/235/62 235/234/62 237/238/62
f 236/229/62 234/230/62 233/237/62 231/236/62
f 234/230/62 238/225/62 232/235/62 233/237/62
f 209/212/63 214/214/63 235/234/63 230/232/63
f 214/214/63 216/216/63 237/238/63 235/234/63
f 199/198/64 197/197/64 218/218/64 220/220/64
f 200/205/65 204/207/65 225/227/65 221/226/65
f 204/207/66 203/200/66 224/222/66 225/227/66
f 208/202/67 205/210/67 226/231/67 229/223/67
f 215/208/68 200/205/68 221/226/68 236/229/68
f 197/197/67 208/202/67 229/223/67 218/218/67
f 216/216/69 210/215/69 231/236/69 237/238/69
f 203/200/66 199/198/66 220/220/66 224/222/66
f 210/215/68 215/208/68 236/229/68 231/236/68
f 205/210/70 209/212/70 230/232/70 226/231/70
