# Blender v2.82 (sub 7) OBJ File: 'CubeWithSlotAndTileSymbols.blend'
# www.blender.org
mtllib TileTriangleUVMapped.mtl
g TileTriangle_TileTraingle
v -0.300000 -0.300000 -0.090000
v 0.300000 -0.300000 -0.090000
v 0.000001 0.300000 -0.090000
v -0.850000 0.850000 -0.039000
v 0.850000 0.850000 -0.039000
v -0.850000 -0.851000 -0.039000
v 0.850000 -0.851000 -0.039000
v -0.800060 -0.800060 -0.138999
v -0.800060 0.800060 -0.138999
v 0.800060 0.800060 -0.138999
v 0.800060 -0.800060 -0.138999
v -0.850000 -0.851000 -0.089000
v -0.850000 0.850000 -0.089000
v 0.850000 0.850000 -0.089000
v 0.850000 -0.851000 -0.089000
v 0.300000 -0.300000 -0.138999
v -0.300000 -0.300000 -0.138999
v 0.000001 0.300000 -0.138999
vt 0.840378 0.314919
vt 0.834484 0.326707
vt 0.673103 0.246016
vt 0.678997 0.234228
vt 0.663939 0.503850
vt 0.663939 0.684280
vt 0.519595 0.576022
vt 0.482512 0.025266
vt 0.482513 0.482783
vt 0.025265 0.482783
vt 0.025265 0.025267
vt 0.538602 0.461208
vt 0.538602 0.030825
vt 0.968985 0.030825
vt 0.834484 0.165325
vt 0.968985 0.461208
vt 0.011817 0.482783
vt 0.011817 0.025267
vt 0.495961 0.025266
vt 0.495961 0.482783
vt 0.482513 0.496231
vt 0.025265 0.496233
vt 0.025265 0.011818
vt 0.482512 0.011817
vt 0.982686 0.480215
vt 0.525169 0.480216
vt 0.519595 0.474640
vt 0.519595 0.017393
vt 0.525170 0.011817
vt 0.982686 0.011817
vt 0.988183 0.017393
vt 0.988183 0.474640
vt 0.840378 0.177113
vt 0.678997 0.257804
vt 0.821305 0.326707
vt 0.821305 0.165325
vn 0.8944 -0.4472 0.0000
vn 0.0000 -0.0000 -1.0000
vn 0.0000 -0.0000 1.0000
vn 1.0000 -0.0000 0.0000
vn -1.0000 -0.0000 0.0000
vn 0.0000 -1.0000 -0.0000
vn 0.0000 1.0000 0.0000
vn -0.7075 0.0000 -0.7067
vn 0.0000 0.7075 -0.7067
vn 0.7075 0.0000 -0.7067
vn 0.0000 -0.7005 -0.7137
vn -0.8944 -0.4472 0.0000
usemtl None
s off
f 1/1/1 17/2/1 18/3/1 3/4/1
f 1/5/2 3/6/2 2/7/2
f 4/8/3 6/9/3 7/10/3 5/11/3
f 9/12/2 10/13/2 11/14/2 16/15/2 18/3/2 17/2/2 8/16/2
f 5/11/4 7/10/4 15/17/4 14/18/4
f 6/9/5 4/8/5 13/19/5 12/20/5
f 7/10/6 6/9/6 12/21/6 15/22/6
f 4/8/7 5/11/7 14/23/7 13/24/7
f 9/12/8 8/16/8 12/25/8 13/26/8
f 10/13/9 9/12/9 13/27/9 14/28/9
f 11/14/10 10/13/10 14/29/10 15/30/10
f 8/16/11 11/14/11 15/31/11 12/32/11
f 16/15/12 2/33/12 3/34/12 18/3/12
f 8/16/2 17/2/2 16/15/2 11/14/2
f 17/2/7 1/35/7 2/36/7 16/15/7
